<svg width="64" height="64" viewBox="0 0 64 64" fill="none" xmlns="http://www.w3.org/2000/svg">
<rect x="0.5" y="0.5" width="63" height="63" rx="31.5" fill="#231F20"/>
<rect x="0.5" y="0.5" width="63" height="63" rx="31.5" stroke="#9F9196"/>
<path d="M32 16.5C27.1032 16.5 14.8613 17.1154 16.0855 18.3462L30.7758 33.7308V43.5769C30.7758 46.0385 23.4307 44.8077 23.4307 48.5H40.5693C40.5693 44.8077 33.2242 46.0385 33.2242 43.5769V33.7308L47.9145 18.3462C49.1387 17.1154 36.8968 16.5 32 16.5ZM32 18.9615C38.121 18.9615 43.6298 19.5769 43.6298 19.5769L41.7935 21.4231H22.2065L20.3702 19.5769C20.3702 19.5769 25.8791 18.9615 32 18.9615Z" fill="#C1B8BB"/>
</svg>
