<svg width="42" height="46" viewBox="0 0 42 46" fill="none" xmlns="http://www.w3.org/2000/svg">
<rect width="42" height="46" rx="8" fill="#231F20"/>
<g opacity="0.7">
<path d="M29.1772 19.2908C28.8617 18.7859 26.1756 16.3207 25.5761 16.3207C24.9766 16.3207 25.2921 17.9319 24.6905 17.4586C24.0889 16.9854 21.2471 15.7527 20.5846 16.0998C19.922 16.4469 19.8904 17.3955 19.5728 17.3955C19.2552 17.3955 14.8968 17.4902 14.3604 17.7111C13.824 17.9319 13.7294 18.7859 13.7294 18.7859C13.7294 18.7859 13.1614 18.6282 12.4967 18.7859C11.832 18.9437 9.49507 21.1229 8.70627 21.4405C7.91747 21.7581 6.24311 21.9138 6.24311 21.9138C5.91707 22.6689 5.9928 23.2306 6.0538 23.4935C6.3588 24.8355 7.95323 25.8326 9.02389 25.7989C9.17324 25.7947 9.4509 25.7652 9.78114 25.8936C10.3365 26.1081 10.6141 26.6024 10.6667 26.6824C10.896 27.0505 12.7554 29.0677 18.723 29.8733C22.2063 30.3445 35.719 28.7984 35.9083 27.9781C36.7097 24.5011 32.04 18.8364 30.3489 19.3854C30.3489 19.3854 29.7494 19.6063 29.6547 19.8903C29.56 20.1742 29.1814 19.2908 29.1814 19.2908H29.1772Z" fill="#C69C6D" stroke="#231F20" stroke-miterlimit="10"/>
<path d="M25.829 24.6293C25.829 24.6293 26.1129 25.6727 26.9354 25.5465C27.7579 25.4202 28.736 20.6811 29.6531 19.8923" fill="#C69C6D"/>
<path d="M25.829 24.6293C25.829 24.6293 26.1129 25.6727 26.9354 25.5465C27.7579 25.4202 28.736 20.6811 29.6531 19.8923" stroke="#231F20" stroke-miterlimit="10"/>
<path d="M24.9108 17.5427C24.9108 17.5427 24.1851 18.5019 24.1536 19.3223C24.122 20.1426 24.2482 21.8822 23.2365 22.0084" fill="#C69C6D"/>
<path d="M24.9108 17.5427C24.9108 17.5427 24.1851 18.5019 24.1536 19.3223C24.122 20.1426 24.2482 21.8822 23.2365 22.0084" stroke="#231F20" stroke-miterlimit="10"/>
<path d="M19.5726 17.3955C19.5726 17.3955 19.0362 19.5747 19.2571 20.7442C19.478 21.9138 17.8667 22.2293 17.8667 22.2293" fill="#C69C6D"/>
<path d="M19.5726 17.3955C19.5726 17.3955 19.0362 19.5747 19.2571 20.7442C19.478 21.9138 17.8667 22.2293 17.8667 22.2293" stroke="#231F20" stroke-miterlimit="10"/>
<path d="M13.7304 18.7859C13.7304 18.7859 13.9513 22.5132 15.3101 23.6512C15.3101 23.6512 13.2256 24.3454 13.2256 25.1678" fill="#C69C6D"/>
<path d="M13.7304 18.7859C13.7304 18.7859 13.9513 22.5132 15.3101 23.6512C15.3101 23.6512 13.2256 24.3454 13.2256 25.1678" stroke="#231F20" stroke-miterlimit="10"/>
<path d="M20.808 23.157C21.2728 23.1128 21.9375 23.1023 22.7095 23.2706C23.3364 23.4073 23.8433 23.6198 24.2135 23.8091" fill="#C69C6D"/>
<path d="M20.808 23.157C21.2728 23.1128 21.9375 23.1023 22.7095 23.2706C23.3364 23.4073 23.8433 23.6198 24.2135 23.8091" stroke="#231F20" stroke-miterlimit="10"/>
</g>
</svg>
