<svg width="24" height="26" viewBox="0 0 24 26" fill="none" xmlns="http://www.w3.org/2000/svg">
<path d="M13.6435 16.1592C17.9453 24.9659 11.6439 24.7401 11.6439 24.7401C11.6439 24.7401 5.3428 24.9659 9.6445 16.1592C4.0583 24.2287 1.12743 18.7023 1.12743 18.7023C1.12743 18.7023 -2.19992 13.4004 7.65829 12.7229M13.6435 16.0688C18.864 24.3749 22.0387 18.9822 22.0387 18.9822" stroke="#F8F7F8" stroke-width="1.07569" stroke-linecap="round"/>
<path d="M15.7781 12.7229C25.5955 13.8302 22.035 18.9817 22.035 18.9817" stroke="#F8F7F8" stroke-width="1.07569" stroke-linecap="round"/>
<path d="M7.65666 12.7215C-2.20781 12.1599 1.05509 6.81999 1.05509 6.81999C1.05509 6.81999 3.91913 1.26028 9.60113 9.26243" stroke="#F8F7F8" stroke-width="1.07569" stroke-linecap="round" stroke-linejoin="round"/>
<path d="M9.3861 1.40503C8.15708 2.32654 7.32843 4.43691 9.64934 9.26362M22.9219 8.94873C22.8108 10.51 21.476 12.4161 15.7801 12.6987" stroke="#F8F7F8" stroke-width="1.07569" stroke-linecap="round"/>
<path d="M15.2699 0.538086C15.5056 0.538869 15.741 0.562347 15.972 0.608398H15.973C16.7742 0.766841 17.4613 1.20747 17.9164 1.84277L18.059 2.04297L18.3051 2.06445C19.0926 2.13584 19.8218 2.50512 20.3597 3.11035C20.9325 3.75446 21.1962 4.47033 21.1674 5.18652V5.20215C21.1531 6.65011 20.4017 7.88624 18.9779 8.69238C17.8559 9.32776 16.3027 9.68354 14.4652 9.68359H14.3881L13.6049 9.67871L13.2103 9.0127C11.9139 6.82739 11.5205 4.87339 11.9301 3.33398C12.2011 2.31521 12.8192 1.50224 13.7299 0.967773L13.7435 0.959961C14.1793 0.687015 14.704 0.538235 15.2699 0.538086ZM15.2709 1.35352C14.9714 1.35352 14.6297 1.40907 14.3031 1.58398L14.1918 1.64941C13.0809 2.28588 12.5973 3.37231 12.6117 4.61426C12.6259 5.83076 13.111 7.2178 13.933 8.60352L14.0892 8.86621L14.3949 8.86719H14.4652C16.0694 8.86715 17.5046 8.58335 18.559 7.98633C19.5668 7.41557 20.2435 6.54172 20.3236 5.3916L20.3324 5.1582C20.3604 4.49017 20.0128 3.9638 19.7299 3.64551C19.3481 3.21604 18.8114 2.92809 18.2181 2.87695H18.2172C18.1646 2.87255 18.1062 2.86914 18.0453 2.86914H18.0375C17.8667 2.87165 17.6974 2.89208 17.5326 2.93066C17.4911 2.79554 17.4384 2.66348 17.3724 2.53711L17.3705 2.53418C17.33 2.45774 17.2853 2.38557 17.2386 2.31934L17.2367 2.31836L17.1 2.14453C16.7617 1.75803 16.3006 1.50598 15.807 1.4082H15.806C15.6467 1.377 15.4647 1.35353 15.2709 1.35352Z" fill="#231F20" stroke="#F8F7F8" stroke-width="1.07569"/>
<path d="M21.417 5.10936L18.9971 8.87379L15.7704 9.68045L13.6193 8.87379L12.006 2.95826L14.1571 1.07605H15.7704L16.846 1.88271L20.0726 2.95826L21.417 5.10936Z" fill="#F8F7F8"/>
</svg>
