<svg width="64" height="64" viewBox="0 0 64 64" fill="none" xmlns="http://www.w3.org/2000/svg">
<rect x="0.5" y="0.5" width="63" height="63" rx="31.5" fill="#231F20"/>
<rect x="0.5" y="0.5" width="63" height="63" rx="31.5" stroke="#9F9196"/>
<path d="M27.3182 35.0566H29.282V26.9468H27.3182V35.0566ZM19.8774 42.1108V32.6953C18.5224 31.9647 17.4226 30.919 16.5782 29.5582C15.7311 28.1974 15.3076 26.6973 15.3076 25.0581C15.3076 22.8707 16.0185 21.0082 17.4403 19.4707C18.8595 17.9318 20.583 17.1624 22.611 17.1624C23.0038 17.1624 23.3985 17.1977 23.7952 17.2684C24.1919 17.3391 24.5866 17.4274 24.9793 17.5334L25.3191 17.616L25.5076 17.2875C26.225 16.003 27.1441 14.9544 28.2648 14.1419C29.3855 13.3294 30.6305 12.9231 31.9999 12.9231C33.3694 12.9231 34.6144 13.3294 35.7351 14.1419C36.8558 14.9544 37.7872 16.003 38.5296 17.2875L38.7181 17.6139L39.0205 17.5334C39.3871 17.4274 39.7609 17.3391 40.1418 17.2684C40.5228 17.1977 40.913 17.1624 41.3123 17.1624C43.3651 17.1624 45.1083 17.9318 46.5419 19.4707C47.9754 21.0096 48.6922 22.8855 48.6922 25.0984C48.6922 26.7376 48.2753 28.2306 47.4413 29.5773C46.6086 30.9239 45.5024 31.9626 44.1225 32.6931V42.1087L19.8774 42.1108ZM34.7571 35.0587H36.7209V26.9468H34.7571V35.0587ZM19.8774 51.0769V44.2304H44.1225V51.0769H19.8774Z" fill="#C1B8BB"/>
</svg>
