<svg width="181" height="207" viewBox="0 0 181 207" fill="none" xmlns="http://www.w3.org/2000/svg">
<path d="M0.379761 114.281C0.379761 90.8007 19.4181 71.7623 42.8983 71.7623C44.1408 71.7623 45.3833 71.8195 46.5973 71.9337V52.9811C62.8649 52.9811 90.3727 24.4165 90.3727 24.4165C90.3727 24.4165 114.038 52.9811 134.162 52.9811V71.9337C135.376 71.8195 136.619 71.7623 137.861 71.7623C161.341 71.7623 180.38 90.8007 180.38 114.281C180.38 137.761 161.341 156.799 137.861 156.799C136.619 156.799 135.376 156.742 134.162 156.628V175.566C114.038 175.566 90.3727 204.131 90.3727 204.131C90.3727 204.131 62.8649 175.566 46.5973 175.566V156.628C45.3833 156.742 44.1408 156.799 42.8983 156.799C19.4181 156.799 0.379761 137.761 0.379761 114.281Z" fill="#F8F7F8" stroke="#674A2C" stroke-width="0.759422" stroke-miterlimit="10"/>
<path d="M11.8463 114.159C11.8463 90.6476 28.4631 71.5835 48.9568 71.5835C50.0413 71.5835 51.1258 71.6407 52.1854 71.7551V52.7769C66.3838 52.7769 90.3928 24.1737 90.3928 24.1737C90.3928 24.1737 111.049 52.7769 128.613 52.7769V71.7551C129.672 71.6407 130.757 71.5835 131.841 71.5835C152.335 71.5835 168.952 90.6476 168.952 114.159C168.952 137.671 152.335 156.735 131.841 156.735C130.757 156.735 129.672 156.678 128.613 156.564V175.528C111.049 175.528 90.3928 204.131 90.3928 204.131C90.3928 204.131 66.3838 175.528 52.1854 175.528V156.564C51.1258 156.678 50.0413 156.735 48.9568 156.735C28.4631 156.735 11.8463 137.671 11.8463 114.159Z" stroke="#674A2C" stroke-width="0.759422" stroke-miterlimit="10"/>
<path d="M24.7017 114.159C24.7017 90.6476 38.5994 71.5835 55.7395 71.5835C56.6466 71.5835 57.5536 71.6407 58.4398 71.7551V52.7769C70.3149 52.7769 90.3952 24.1737 90.3952 24.1737C90.3952 24.1737 107.671 52.7769 122.361 52.7769V71.7551C123.247 71.6407 124.154 71.5835 125.061 71.5835C142.201 71.5835 156.099 90.6476 156.099 114.159C156.099 137.671 142.201 156.735 125.061 156.735C124.154 156.735 123.247 156.678 122.361 156.564V175.528C107.671 175.528 90.3952 204.131 90.3952 204.131C90.3952 204.131 70.3149 175.528 58.4398 175.528V156.564C57.5536 156.678 56.6466 156.735 55.7395 156.735C38.5994 156.735 24.7017 137.671 24.7017 114.159Z" stroke="#674A2C" stroke-width="0.759422" stroke-miterlimit="10"/>
<path d="M37.5585 114.159C37.5585 90.6476 48.7371 71.5835 62.5238 71.5835C63.2534 71.5835 63.9829 71.6407 64.6957 71.7551V52.7769C74.2474 52.7769 90.3989 24.1737 90.3989 24.1737C90.3989 24.1737 104.295 52.7769 116.11 52.7769V71.7551C116.823 71.6407 117.553 71.5835 118.282 71.5835C132.069 71.5835 143.248 90.6476 143.248 114.159C143.248 137.671 132.069 156.735 118.282 156.735C117.553 156.735 116.823 156.678 116.11 156.564V175.528C104.295 175.528 90.3989 204.131 90.3989 204.131C90.3989 204.131 74.2474 175.528 64.6957 175.528V156.564C63.9829 156.678 63.2534 156.735 62.5238 156.735C48.7371 156.735 37.5585 137.671 37.5585 114.159Z" stroke="#674A2C" stroke-width="0.759422" stroke-miterlimit="10"/>
<path d="M48.9823 114.159C48.9823 90.6476 57.7439 71.5835 68.5496 71.5835C69.1214 71.5835 69.6933 71.6407 70.252 71.7551V52.7769C77.7384 52.7769 90.3977 24.1737 90.3977 24.1737C90.3977 24.1737 101.289 52.7769 110.55 52.7769V71.7551C111.109 71.6407 111.681 71.5835 112.252 71.5835C123.058 71.5835 131.82 90.6476 131.82 114.159C131.82 137.671 123.058 156.735 112.252 156.735C111.681 156.735 111.109 156.678 110.55 156.564V175.528C101.289 175.528 90.3977 204.131 90.3977 204.131C90.3977 204.131 77.7384 175.528 70.252 175.528V156.564C69.6933 156.678 69.1214 156.735 68.5496 156.735C57.7439 156.735 48.9823 137.671 48.9823 114.159Z" stroke="#674A2C" stroke-width="0.759422" stroke-miterlimit="10"/>
<path d="M63.265 114.159C63.265 90.6476 69.0054 71.5835 76.085 71.5835C76.4597 71.5835 76.8343 71.6407 77.2004 71.7551V52.7769C82.1053 52.7769 90.3993 24.1737 90.3993 24.1737C90.3993 24.1737 97.5349 52.7769 103.603 52.7769V71.7551C103.969 71.6407 104.343 71.5835 104.718 71.5835C111.798 71.5835 117.538 90.6476 117.538 114.159C117.538 137.671 111.798 156.735 104.718 156.735C104.343 156.735 103.969 156.678 103.603 156.564V175.528C97.5349 175.528 90.3993 204.131 90.3993 204.131C90.3993 204.131 82.1053 175.528 77.2004 175.528V156.564C76.8343 156.678 76.4597 156.735 76.085 156.735C69.0054 156.735 63.265 137.671 63.265 114.159Z" stroke="#674A2C" stroke-width="0.759422" stroke-miterlimit="10"/>
<path d="M78.9756 112.731C78.9756 89.2193 81.3926 70.1553 84.3735 70.1553C84.5312 70.1553 84.6889 70.2125 84.8431 70.3269V51.3486C86.9083 51.3486 90.4005 22.7454 90.4005 22.7454C90.4005 22.7454 93.405 51.3486 95.9598 51.3486V70.3269C96.1139 70.2125 96.2716 70.1553 96.4294 70.1553C99.4103 70.1553 101.827 89.2193 101.827 112.731C101.827 136.243 99.4103 155.307 96.4294 155.307C96.2716 155.307 96.1139 155.25 95.9598 155.135V174.099C93.405 174.099 90.4005 202.703 90.4005 202.703C90.4005 202.703 86.9083 174.099 84.8431 174.099V155.135C84.6889 155.25 84.5312 155.307 84.3735 155.307C81.3926 155.307 78.9756 136.243 78.9756 112.731Z" stroke="#674A2C" stroke-width="0.759422" stroke-miterlimit="10"/>
<path d="M47.5538 112.717C47.5538 100.955 56.758 91.3497 68.3861 90.7103C69.0106 79.0971 78.6314 69.8779 90.3933 69.8779C102.155 69.8779 111.791 79.0971 112.415 90.7103C124.043 91.3497 133.248 100.955 133.248 112.717C133.248 124.479 124.043 134.1 112.415 134.739C111.776 146.353 102.17 155.572 90.3933 155.572C78.6165 155.572 69.0255 146.353 68.3861 134.739C56.758 134.1 47.5538 124.479 47.5538 112.717Z" fill="#9F9196" stroke="#FFB8CC" stroke-width="0.759422" stroke-miterlimit="10"/>
<path d="M60.4097 112.862C60.4097 104.629 66.8526 97.9049 74.9923 97.4573C75.4295 89.328 82.164 82.8746 90.3973 82.8746C98.6306 82.8746 105.376 89.328 105.813 97.4573C113.952 97.9049 120.395 104.629 120.395 112.862C120.395 121.096 113.952 127.83 105.813 128.278C105.365 136.407 98.6411 142.86 90.3973 142.86C82.1536 142.86 75.4399 136.407 74.9923 128.278C66.8526 127.83 60.4097 121.096 60.4097 112.862Z" fill="#9F9196" stroke="#FFB8CC" stroke-width="0.759422" stroke-miterlimit="10"/>
<path d="M90.3756 100.97C83.7418 100.97 78.3641 106.348 78.3641 112.982C78.3641 119.615 83.7418 124.993 90.3756 124.993C97.0093 124.993 102.387 119.615 102.387 112.982C102.387 106.348 97.0093 100.97 90.3756 100.97Z" fill="#F8F7F8" stroke="#F8F7F8" stroke-width="0.759422" stroke-miterlimit="10"/>
<path d="M90.3756 0.379721C83.7418 0.379721 78.3641 5.75743 78.3641 12.3912C78.3641 19.0249 83.7418 24.4026 90.3756 24.4026C97.0093 24.4026 102.387 19.0249 102.387 12.3912C102.387 5.75743 97.0093 0.379721 90.3756 0.379721Z" fill="#C1B8BB" stroke="#674A2C" stroke-width="0.759422" stroke-miterlimit="10"/>
</svg>
