<svg width="42" height="42" viewBox="0 0 42 42" fill="none" xmlns="http://www.w3.org/2000/svg">
<rect width="42" height="42" rx="8" fill="#EFEFEF"/>
<path d="M12.2157 29.9912C11.0892 29.1679 8.64013 26.1883 8.50684 22.158C8.50684 22.158 12.5633 22.3618 13.5879 26.4209L13.5304 26.596C13.0834 25.1324 11.5832 23.044 9.45822 22.7931C9.45822 22.7931 10.8513 26.3111 12.7437 28.6556L12.6914 28.7915C10.7991 26.7921 9.15242 23.4178 9.15242 23.4178C9.01389 25.4355 11.0683 28.734 12.2444 29.8449L12.2183 29.9912H12.2157Z" fill="#926426"/>
<path d="M16.297 25.9869C16.0618 24.3821 17.1125 22.2859 17.3059 21.9775C16.9374 22.1343 15.7142 22.8636 15.0294 24.092L14.8621 23.7757C15.4136 22.8139 16.263 22.0298 16.9557 21.643C15.5783 21.6769 14.3524 22.333 13.9656 22.6231L13.8245 22.482C15.2751 21.2091 17.596 21.0836 18.2625 21.1882C18.2625 21.1882 16.1925 23.7287 16.3885 26.2823L16.297 25.9869Z" fill="#926426"/>
<path d="M9.35717 17.3958C9.02 17.8244 8.90238 19.5338 8.90238 19.5338C8.77954 19.492 8.51294 19.4763 8.51294 19.4763C8.53908 17.7094 9.11409 16.5176 9.11409 16.5176C10.5699 16.9462 12.7419 18.436 13.4685 19.8239C13.4685 19.8239 13.3849 19.8605 13.2751 19.9102C13.2751 19.9102 11.9264 18.0074 9.96877 17.3304C10.7738 18.1903 11.6964 20.5793 11.6964 20.5793C11.6964 20.5793 11.6154 20.5139 11.4168 20.3989C11.4168 20.3989 9.96877 17.5578 9.35717 17.3984V17.3958Z" fill="#926426"/>
<path d="M16.5173 19.288C16.5983 18.7679 17.8189 17.5525 18.0568 17.4584C17.142 17.5525 15.477 18.1981 15.477 18.1981L15.3699 18.0596C15.3699 18.0596 16.925 17.0899 19.097 16.8207C19.0291 18.3602 18.6344 19.1364 18.6344 19.1364C18.5403 19.1234 18.4462 19.1181 18.3077 19.1234C18.3077 19.1234 18.6083 18.2608 18.6056 17.5473C18.1692 17.6858 17.1498 18.4229 16.6793 19.2488L16.5173 19.2854V19.288Z" fill="#926426"/>
<path d="M12.1981 15.642C11.8165 14.6043 11.3931 13.7993 11.1552 13.6608C10.9304 13.7157 10.4312 14.2227 10.2901 14.6043L10.0339 14.5128C10.5593 13.47 11.1134 13.0256 11.1134 13.0256C12.5143 13.632 13.9153 15.4119 14.161 15.8955L13.9702 15.9948C13.3167 15.1061 12.1118 14.0398 11.7956 13.8542C12.1693 14.4057 12.5562 15.8772 12.5562 15.8772C12.4333 15.7857 12.1981 15.642 12.1981 15.642Z" fill="#926426"/>
<path d="M16.7564 15.1191C16.7564 15.1191 17.3523 13.5797 18.1286 12.9942C17.1615 13.2451 15.9513 13.9011 15.9513 13.9011C15.9095 13.8358 15.8363 13.7495 15.771 13.679C17.5927 12.6152 19.0251 12.5028 19.0251 12.5028C19.1479 12.9733 19.0251 14.0736 18.5886 14.7663C18.5886 14.7663 18.2514 14.8133 18.1181 14.8316C18.1181 14.8316 18.7297 13.9299 18.7114 12.9811C17.8567 13.3131 17.1981 14.9832 17.1981 14.9832C17.0883 15.0067 16.8714 15.0773 16.7564 15.1165V15.1191Z" fill="#926426"/>
<path d="M14.0454 10.4197C13.8285 10.4929 13.0313 11.0157 12.6288 11.4208L12.3674 11.2457C13.3868 10.1453 14.6544 9.57812 14.6544 9.57812C15.381 10.4589 15.6947 11.4757 15.6947 11.4757L15.4411 11.5855C15.4411 11.5855 14.9315 10.4511 14.6361 10.3753C14.3408 11.1228 14.2676 12.2232 14.2676 12.2232L13.9722 12.4088L13.7553 12.2023C13.8651 10.9686 14.0454 10.4197 14.0454 10.4197Z" fill="#926426"/>
<path d="M16.5051 8.91412C16.5704 9.08401 16.9285 9.82369 17.02 9.93346C17.1951 9.9204 17.3441 9.88119 17.6812 10.0432C17.9661 10.1792 18.1778 10.4379 18.2275 10.5294C18.6405 10.5059 18.9985 10.4928 19.0456 10.4876L19.0639 10.2942C19.0639 10.2942 18.1935 10.4405 18.136 9.9779C18.136 9.9779 18.0079 9.77664 18.9985 8.48547V8.35217L18.9123 8.38354C18.7267 8.65275 18.0445 9.69562 17.6185 9.66687C17.2291 9.64334 16.8292 9.31402 16.7821 8.81741L16.5024 8.91412H16.5051Z" fill="#926426"/>
<path d="M29.8422 29.6357C31.0079 28.5353 33.0413 25.2708 32.9054 23.274C32.9054 23.274 31.2745 26.6143 29.4031 28.5928L29.3508 28.4569C31.2222 26.136 32.6022 22.6545 32.6022 22.6545C30.4982 22.9028 29.0136 24.9703 28.5719 26.4182L28.5144 26.2457C29.5259 22.2285 33.5432 22.0272 33.5432 22.0272C33.4099 26.0157 30.987 28.964 29.8709 29.7821L29.8448 29.6357H29.8422Z" fill="#926426"/>
<path d="M25.648 25.8432C25.878 24.2776 24.8508 22.2311 24.6626 21.9305C25.0207 22.0847 26.2151 22.7956 26.8842 23.9953L27.0489 23.6869C26.5105 22.7486 25.6819 21.9828 25.005 21.6064C26.3484 21.6404 27.5455 22.2807 27.9245 22.563L28.063 22.4245C26.6464 21.183 24.3803 21.0575 23.7295 21.1621C23.7295 21.1621 25.7499 23.6425 25.5591 26.1333L25.648 25.8458V25.8432Z" fill="#926426"/>
<path d="M32.8447 17.3201C33.2158 17.7905 33.3413 19.6593 33.3413 19.6593C33.4772 19.6149 33.7673 19.5966 33.7673 19.5966C33.7386 17.6651 33.1113 16.3608 33.1113 16.3608C31.5195 16.8287 29.1437 18.4596 28.3491 19.9782C28.3491 19.9782 28.4406 20.0174 28.5608 20.0723C28.5608 20.0723 30.0376 17.9918 32.1782 17.2495C31.2974 18.1878 30.2885 20.8015 30.2885 20.8015C30.2885 20.8015 30.3774 20.7283 30.5943 20.6029C30.5943 20.6029 32.1782 17.4952 32.8473 17.3201H32.8447Z" fill="#926426"/>
<path d="M25.7165 19.437C25.6198 18.8254 24.1848 17.3983 23.9052 17.2885C24.9794 17.3983 26.9371 18.1563 26.9371 18.1563L27.0651 17.9916C27.0651 17.9916 25.2382 16.852 22.6846 16.5358C22.7656 18.3471 23.2282 19.2592 23.2282 19.2592C23.338 19.2436 23.4478 19.2357 23.6098 19.2436C23.6098 19.2436 23.257 18.2294 23.2596 17.3904C23.7719 17.5525 24.9716 18.4202 25.5231 19.3925L25.7139 19.437H25.7165Z" fill="#926426"/>
<path d="M21 6C12.7146 6 6 12.7146 6 21C6 29.2855 12.7146 36.0001 21 36.0001C29.2855 36.0001 36.0001 29.2855 36.0001 21C36.0001 12.7146 29.2855 6 21 6ZM17.9969 30.8067C18.0858 30.9949 18.1825 31.2013 18.287 31.4313C18.2635 31.4444 18.24 31.4575 18.2165 31.4679C18.0753 31.5411 17.9603 31.6065 17.8453 31.7554C16.8965 31.0184 16.1359 30.0696 15.736 29.1234C15.5792 28.7549 15.5034 28.2217 15.4119 27.6049C15.1846 26.0393 14.8761 23.9196 12.942 22.3513C13.5693 21.8155 15.5322 20.3545 18.3498 20.3545C18.7836 20.3545 19.2253 20.3884 19.6671 20.459C18.7627 21.6221 17.1553 23.7288 17.1239 26.2196C17.0899 28.8751 17.3931 29.5207 17.9995 30.8067H17.9969ZM19.1835 19.688C18.9352 19.6566 18.6556 19.6409 18.355 19.6409C17.3984 19.6409 16.3294 19.8004 15.6864 20.0278C15.3884 19.539 14.6932 18.4438 14.1103 17.861C15.3571 16.9645 18.3576 16.068 19.7925 16.068C19.8082 16.068 19.8239 16.068 19.8369 16.068C19.8369 16.1359 19.837 16.2065 19.8396 16.2771C19.8526 17.0612 19.8683 18.1224 19.1835 19.6854V19.688ZM19.0999 15.459C18.0074 15.5583 16.7658 15.8772 16.2013 16.0549C15.7909 15.3544 15.0303 14.2201 14.4449 13.6608C15.6289 12.8218 17.8322 11.7292 19.8213 11.6926C20.0408 12.9707 19.7612 14.4423 19.0999 15.4564V15.459ZM16.7946 10.9974C17.1265 10.7674 17.6388 10.8641 17.7591 11.4234C17.5212 11.4783 17.1893 11.5646 16.9697 11.6456C16.907 11.3529 16.8547 11.1385 16.7972 10.9974H16.7946ZM17.4323 8.0413C17.4323 8.05437 17.4323 8.06744 17.4323 8.08312C17.4323 8.23472 17.4428 8.43597 17.4977 8.61632C17.5473 8.78882 17.6728 8.98224 17.908 8.98224H17.9185H17.9289C18.3445 8.97178 18.5275 8.65814 18.5196 8.43336C18.517 8.27654 18.4282 7.97596 18.3759 7.80346C18.6739 7.73027 19.4031 7.55777 19.7533 7.47936C19.7664 7.8688 19.7847 8.71302 19.7899 9.02406C19.6252 9.03974 19.3325 9.07633 19.1234 9.18349C18.9927 9.24883 18.7601 9.3952 18.7601 9.69578C18.7601 9.70885 18.7601 9.72192 18.7601 9.74021C18.7706 9.98067 19.0006 10.0826 19.1757 10.0695C19.3978 10.0695 19.6566 9.98329 19.8291 9.91794L19.7559 10.9713C19.4893 10.9817 18.8202 11.0209 18.2975 11.1333C18.125 10.6315 17.6205 10.2891 17.1004 10.2865C16.9828 10.2865 16.8626 10.3048 16.7449 10.344C16.494 9.75067 15.9739 8.85939 15.7674 8.51438L17.435 8.04392L17.4323 8.0413ZM14.897 8.75746C15.7465 9.92056 16.3058 10.9974 16.4365 11.7188C15.6027 12.0664 14.4553 12.7172 13.9117 13.1485C13.2635 12.563 12.1344 11.8077 11.2535 11.3685C12.2023 10.4694 13.3419 9.49452 14.897 8.76007V8.75746ZM10.723 11.9357C13.5118 13.1197 14.7742 15.2055 15.4564 16.3372C14.6984 16.6613 13.9509 17.0743 13.5693 17.3513C12.8322 16.677 10.9164 15.2029 8.81496 14.6122C9.24622 13.6582 10.2839 12.4402 10.723 11.9331V11.9357ZM8.44643 15.3649C10.3544 15.8223 13.47 17.5761 14.9938 20.2761C14.1365 20.6106 13.0962 21.1647 12.3827 21.8547C11.4051 20.9844 9.45009 20.1218 7.47413 20.1218C7.51333 19.3142 7.68845 16.8573 8.44643 15.3675V15.3649ZM19.1077 33.9091L18.7052 33.9039C12.2755 32.9943 7.59175 27.5709 7.48458 20.9582C7.61788 20.9478 7.75379 20.9425 7.88709 20.9425C10.3858 20.9425 12.3147 22.8218 12.8453 23.3968C14.0633 24.7167 14.275 25.9347 14.6278 27.9525C14.6723 28.2008 14.7167 28.4622 14.7664 28.734C15.1166 30.6577 17.1474 32.32 17.895 32.6572C17.9289 32.6729 17.9655 32.6807 17.9995 32.6807C18.0884 32.6807 18.1746 32.6336 18.2217 32.5526C18.4621 32.137 18.7627 31.9358 19.1443 31.9358C19.688 31.9358 20.1323 32.3697 20.1323 32.9002C20.1323 33.4308 19.6514 33.9091 19.1051 33.9091H19.1077ZM34.5312 20.1192C32.5552 20.1192 30.6002 20.9818 29.6227 21.8521C28.9091 21.1647 27.8689 20.6106 27.0116 20.2734C28.5354 17.5735 31.6509 15.8197 33.5589 15.3623C34.3169 16.8521 34.4946 19.309 34.5312 20.1166V20.1192ZM24.8814 26.2222C24.85 23.734 23.2426 21.6247 22.3383 20.4616C22.78 20.3937 23.2191 20.3571 23.6556 20.3571C26.4679 20.3571 28.436 21.8181 29.0633 22.3539C27.1318 23.9222 26.8234 26.0419 26.596 27.6075C26.5071 28.2243 26.4287 28.7549 26.2719 29.1261C25.872 30.0748 25.1088 31.021 24.1626 31.7581C24.0476 31.6091 23.9326 31.5411 23.7915 31.4705C23.768 31.4575 23.7444 31.447 23.7209 31.434C23.8255 31.2039 23.9222 30.9975 24.011 30.8093C24.6148 29.5233 24.918 28.8778 24.8866 26.2222H24.8814ZM22.1631 16.2823C22.1631 16.2117 22.1631 16.1412 22.1658 16.0732C22.1814 16.0732 22.1971 16.0732 22.2102 16.0732C23.6451 16.0732 26.6457 16.9697 27.8924 17.8662C27.3095 18.4491 26.6143 19.5442 26.3163 20.033C25.6734 19.803 24.6043 19.6461 23.6477 19.6461C23.3445 19.6461 23.0675 19.6618 22.8192 19.6932C22.1344 18.1328 22.1501 17.069 22.1631 16.2849V16.2823ZM33.1877 14.6148C31.0863 15.2055 29.1705 16.6796 28.4334 17.3539C28.0518 17.0769 27.3043 16.6639 26.5463 16.3398C27.2285 15.2081 28.4909 13.1197 31.2797 11.9383C31.7188 12.4454 32.7565 13.6634 33.1877 14.6174V14.6148ZM30.7492 11.3685C29.8683 11.8103 28.7392 12.5656 28.091 13.1485C27.5474 12.7172 26.4 12.0664 25.5662 11.7188C25.6969 11 26.2562 9.92056 27.1057 8.75746C28.6582 9.49191 29.8004 10.4668 30.7492 11.3659V11.3685ZM22.8819 9.18611C22.6754 9.08156 22.3801 9.04235 22.2154 9.02928C22.2206 8.71564 22.2363 7.87141 22.252 7.48197C22.6022 7.56038 23.3289 7.7355 23.6294 7.80607C23.5745 7.97857 23.4883 8.27915 23.4857 8.43597C23.4752 8.66336 23.6608 8.9744 24.0764 8.98485H24.0947C24.3273 8.98485 24.4554 8.78882 24.505 8.61632C24.5599 8.43859 24.5704 8.23472 24.5704 8.08312C24.5704 8.06744 24.5704 8.05437 24.5704 8.0413L26.2379 8.51177C26.0314 8.85678 25.5113 9.74805 25.2604 10.3414C25.1428 10.3022 25.0225 10.2839 24.9049 10.2839C24.3822 10.2839 23.8803 10.6289 23.7078 11.1307C23.1851 11.0183 22.5134 10.9791 22.2494 10.9687L22.1762 9.91533C22.3487 9.98329 22.6049 10.0643 22.8296 10.0669C23.0048 10.08 23.2348 9.97806 23.2452 9.73498C23.2452 9.7193 23.2452 9.70885 23.2452 9.69316C23.2452 9.39259 23.0152 9.24622 22.8819 9.18088V9.18611ZM25.2081 11C25.1506 11.1412 25.0983 11.3555 25.0356 11.6482C24.8134 11.5698 24.4815 11.4809 24.2463 11.4261C24.3639 10.8641 24.8788 10.77 25.2107 11H25.2081ZM22.1814 11.6979C24.1705 11.7345 26.3738 12.8244 27.5578 13.666C26.9724 14.2253 26.2092 15.3623 25.8014 16.0601C25.2369 15.8798 23.9954 15.5635 22.9028 15.4642C22.2416 14.4501 21.9593 12.976 22.1814 11.7005V11.6979ZM23.2975 33.9065L22.8976 33.9117C22.3487 33.9117 21.8678 33.4413 21.8678 32.9029C21.8678 32.3644 22.3095 31.9384 22.8558 31.9384C23.2374 31.9384 23.538 32.1397 23.7784 32.5552C23.8255 32.6363 23.9117 32.6833 24.0006 32.6833C24.0372 32.6833 24.0711 32.6755 24.1051 32.6598C24.8553 32.3226 26.8861 30.6603 27.2337 28.7366C27.2834 28.4648 27.3278 28.2034 27.3723 27.9551C27.7251 25.9373 27.9368 24.7193 29.1548 23.3994C29.688 22.8244 31.6169 20.9452 34.113 20.9452C34.2463 20.9452 34.3822 20.9504 34.5155 20.9608C34.4083 27.5761 29.7246 32.997 23.2949 33.9065H23.2975Z" fill="#926426"/>
<path d="M29.8922 15.6157C30.3026 14.4997 30.76 13.6346 31.0135 13.4856C31.254 13.5457 31.7924 14.0893 31.944 14.4997L32.221 14.4004C31.6565 13.2791 31.0605 12.8008 31.0605 12.8008C29.5524 13.4542 28.0469 15.3674 27.783 15.885L27.9894 15.9921C28.6925 15.0381 29.9863 13.8881 30.3261 13.6894C29.9236 14.2828 29.508 15.8667 29.508 15.8667C29.6387 15.7673 29.8922 15.6157 29.8922 15.6157Z" fill="#926426"/>
<path d="M25.3001 15.1062C25.3001 15.1062 24.6833 13.517 23.8835 12.9133C24.8793 13.172 26.1287 13.849 26.1287 13.849C26.1731 13.781 26.2489 13.6921 26.3142 13.6216C24.4324 12.5212 22.9556 12.4088 22.9556 12.4088C22.8302 12.895 22.9556 14.0293 23.4052 14.7455C23.4052 14.7455 23.7528 14.7925 23.8913 14.8108C23.8913 14.8108 23.2614 13.8803 23.2797 12.9002C24.1632 13.2426 24.8427 14.9676 24.8427 14.9676C24.9577 14.9912 25.1799 15.0643 25.3001 15.1062Z" fill="#926426"/>
<path d="M27.9442 10.4773C28.1507 10.5479 28.9113 11.0471 29.2955 11.4339L29.5438 11.2667C28.5715 10.216 27.3614 9.67493 27.3614 9.67493C26.6687 10.5165 26.3682 11.4888 26.3682 11.4888L26.6112 11.5934C26.6112 11.5934 27.0974 10.5113 27.3797 10.4381C27.6619 11.1517 27.7325 12.2024 27.7325 12.2024L28.0148 12.3801L28.2213 12.1815C28.1167 11.0053 27.9442 10.4799 27.9442 10.4799V10.4773Z" fill="#926426"/>
<path d="M25.4557 8.93789C25.3903 9.10517 25.0375 9.8344 24.946 9.94417C24.7735 9.9311 24.6245 9.8919 24.2926 10.0513C24.0103 10.1846 23.8012 10.4408 23.7542 10.5296C23.3464 10.5061 22.9936 10.493 22.9465 10.4878L22.9282 10.297C22.9282 10.297 23.7855 10.4434 23.843 9.98599C23.843 9.98599 23.9685 9.78735 22.991 8.51447V8.38379L23.0746 8.41515C23.2575 8.68175 23.9319 9.70632 24.3527 9.68019C24.7343 9.65666 25.1316 9.33256 25.1786 8.8438L25.4531 8.94051L25.4557 8.93789Z" fill="#926426"/>
</svg>
