<svg width="42" height="46" viewBox="0 0 42 46" fill="none" xmlns="http://www.w3.org/2000/svg">
<rect width="42" height="46" rx="8" fill="#231F20"/>
<g opacity="0.7">
<path d="M21 13.364C14.8878 13.364 6 14.6235 6 17.8589C6 19.4412 8.6729 25.3163 10.5399 27.3529C11.8657 28.7989 14.5968 29.7705 14.5968 29.7705C14.5968 29.7705 14.274 30.8605 15.4396 31.625C16.8962 32.5805 19.6304 32.6361 21 32.6361C22.3696 32.6361 25.1032 32.5798 26.5604 31.625C27.726 30.8611 27.4032 29.7705 27.4032 29.7705C27.4032 29.7705 30.1343 28.7989 31.4601 27.3529C33.3271 25.3163 36 19.4412 36 17.8589C36 14.6235 27.1129 13.364 21 13.364Z" fill="#C69C6D" stroke="#231F20" stroke-miterlimit="10"/>
<path d="M6 17.6501C6 20.1397 12.7135 22.1575 20.9956 22.1575C29.2777 22.1575 35.9912 20.1397 35.9912 17.6501" fill="#C69C6D"/>
<path d="M6 17.6501C6 20.1397 12.7135 22.1575 20.9956 22.1575C29.2777 22.1575 35.9912 20.1397 35.9912 17.6501" stroke="#231F20" stroke-miterlimit="10"/>
</g>
</svg>
