<svg width="42" height="42" viewBox="0 0 42 42" fill="none" xmlns="http://www.w3.org/2000/svg">
<rect width="42" height="42" rx="8" fill="#EFEFEF"/>
<path d="M34.4023 21.0339C34.4023 24.5314 31.5665 27.3672 28.0691 27.3672C27.884 27.3672 27.6989 27.3587 27.5181 27.3417V30.1647C25.095 30.1647 20.9976 34.4195 20.9976 34.4195C20.9976 34.4195 17.4726 30.1647 14.4751 30.1647V27.3417C14.2942 27.3587 14.1091 27.3672 13.9241 27.3672C10.4266 27.3672 7.59082 24.5314 7.59082 21.0339C7.59082 17.5365 10.4266 14.7007 13.9241 14.7007C14.1091 14.7007 14.2942 14.7092 14.4751 14.7262V11.9053C17.4726 11.9053 20.9976 7.65051 20.9976 7.65051C20.9976 7.65051 25.095 11.9053 27.5181 11.9053V14.7262C27.6989 14.7092 27.884 14.7007 28.0691 14.7007C31.5665 14.7007 34.4023 17.5365 34.4023 21.0339Z" fill="#E1D9A7" stroke="#926426" stroke-width="0.617842" stroke-miterlimit="10"/>
<path d="M32.6938 21.052C32.6938 24.5542 30.2187 27.3938 27.1661 27.3938C27.0045 27.3938 26.843 27.3853 26.6852 27.3683V30.1951C24.5703 30.1951 20.9941 34.4557 20.9941 34.4557C20.9941 34.4557 17.9173 30.1951 15.3011 30.1951V27.3683C15.1433 27.3853 14.9817 27.3938 14.8202 27.3938C11.7676 27.3938 9.29248 24.5542 9.29248 21.052C9.29248 17.5499 11.7676 14.7102 14.8202 14.7102C14.9817 14.7102 15.1433 14.7187 15.3011 14.7358V11.911C17.9173 11.911 20.9941 7.65051 20.9941 7.65051C20.9941 7.65051 24.5703 11.911 26.6852 11.911V14.7358C26.843 14.7187 27.0045 14.7102 27.1661 14.7102C30.2187 14.7102 32.6938 17.5499 32.6938 21.052Z" stroke="#926426" stroke-width="0.617842" stroke-miterlimit="10"/>
<path d="M30.7793 21.052C30.7793 24.5542 28.7092 27.3938 26.1561 27.3938C26.021 27.3938 25.8859 27.3853 25.7539 27.3683V30.1951C23.9851 30.1951 20.9941 34.4557 20.9941 34.4557C20.9941 34.4557 18.4208 30.1951 16.2327 30.1951V27.3683C16.1007 27.3853 15.9656 27.3938 15.8304 27.3938C13.2774 27.3938 11.2073 24.5542 11.2073 21.052C11.2073 17.5499 13.2774 14.7102 15.8304 14.7102C15.9656 14.7102 16.1007 14.7187 16.2327 14.7358V11.911C18.4208 11.911 20.9941 7.65051 20.9941 7.65051C20.9941 7.65051 23.9851 11.911 25.7539 11.911V14.7358C25.8859 14.7187 26.021 14.7102 26.1561 14.7102C28.7092 14.7102 30.7793 17.5499 30.7793 21.052Z" stroke="#926426" stroke-width="0.617842" stroke-miterlimit="10"/>
<path d="M28.865 21.052C28.865 24.5542 27.1999 27.3938 25.1464 27.3938C25.0377 27.3938 24.929 27.3853 24.8229 27.3683V30.1951C23.4001 30.1951 20.9943 34.4557 20.9943 34.4557C20.9943 34.4557 18.9245 30.1951 17.1645 30.1951V27.3683C17.0583 27.3853 16.9496 27.3938 16.8409 27.3938C14.7874 27.3938 13.1223 24.5542 13.1223 21.052C13.1223 17.5499 14.7874 14.7102 16.8409 14.7102C16.9496 14.7102 17.0583 14.7187 17.1645 14.7358V11.911C18.9245 11.911 20.9943 7.65051 20.9943 7.65051C20.9943 7.65051 23.4001 11.911 24.8229 11.911V14.7358C24.929 14.7187 25.0377 14.7102 25.1464 14.7102C27.1999 14.7102 28.865 17.5499 28.865 21.052Z" stroke="#926426" stroke-width="0.617842" stroke-miterlimit="10"/>
<path d="M27.1626 21.052C27.1626 24.5542 25.8575 27.3938 24.248 27.3938C24.1628 27.3938 24.0776 27.3853 23.9944 27.3683V30.1951C22.8793 30.1951 20.9937 34.4557 20.9937 34.4557C20.9937 34.4557 19.3714 30.1951 17.9919 30.1951V27.3683C17.9087 27.3853 17.8235 27.3938 17.7383 27.3938C16.1288 27.3938 14.8237 24.5542 14.8237 21.052C14.8237 17.5499 16.1288 14.7102 17.7383 14.7102C17.8235 14.7102 17.9087 14.7187 17.9919 14.7358V11.911C19.3714 11.911 20.9937 7.65051 20.9937 7.65051C20.9937 7.65051 22.8793 11.911 23.9944 11.911V14.7358C24.0776 14.7187 24.1628 14.7102 24.248 14.7102C25.8575 14.7102 27.1626 17.5499 27.1626 21.052Z" stroke="#926426" stroke-width="0.617842" stroke-miterlimit="10"/>
<path d="M25.036 21.052C25.036 24.5542 24.181 27.3938 23.1264 27.3938C23.0706 27.3938 23.0148 27.3853 22.9603 27.3683V30.1951C22.2297 30.1951 20.9943 34.4557 20.9943 34.4557C20.9943 34.4557 19.9314 30.1951 19.0276 30.1951V27.3683C18.9731 27.3853 18.9173 27.3938 18.8615 27.3938C17.8069 27.3938 16.9519 24.5542 16.9519 21.052C16.9519 17.5499 17.8069 14.7102 18.8615 14.7102C18.9173 14.7102 18.9731 14.7187 19.0276 14.7358V11.911C19.9314 11.911 20.9943 7.65051 20.9943 7.65051C20.9943 7.65051 22.2297 11.911 22.9603 11.911V14.7358C23.0148 14.7187 23.0706 14.7102 23.1264 14.7102C24.181 14.7102 25.036 17.5499 25.036 21.052Z" stroke="#926426" stroke-width="0.617842" stroke-miterlimit="10"/>
<path d="M22.6956 21.2648C22.6956 24.7669 22.3356 27.6066 21.8915 27.6066C21.868 27.6066 21.8446 27.5981 21.8216 27.581V30.4079C21.514 30.4079 20.9938 34.6684 20.9938 34.6684C20.9938 34.6684 20.5463 30.4079 20.1657 30.4079V27.581C20.1428 27.5981 20.1193 27.6066 20.0958 27.6066C19.6518 27.6066 19.2917 24.7669 19.2917 21.2648C19.2917 17.7626 19.6518 14.923 20.0958 14.923C20.1193 14.923 20.1428 14.9315 20.1657 14.9485V12.1238C20.5463 12.1238 20.9938 7.86328 20.9938 7.86328C20.9938 7.86328 21.514 12.1238 21.8216 12.1238V14.9485C21.8446 14.9315 21.868 14.923 21.8915 14.923C22.3356 14.923 22.6956 17.7626 22.6956 21.2648Z" stroke="#926426" stroke-width="0.617842" stroke-miterlimit="10"/>
<path d="M20.9969 7.57827C21.985 7.57827 22.786 6.77725 22.786 5.78914C22.786 4.80102 21.985 4 20.9969 4C20.0088 4 19.2078 4.80102 19.2078 5.78914C19.2078 6.77725 20.0088 7.57827 20.9969 7.57827Z" fill="#F8F7F8" stroke="#926426" stroke-width="0.617842" stroke-miterlimit="10"/>
<path d="M20.9969 38C21.985 38 22.786 37.199 22.786 36.2109C22.786 35.2228 21.985 34.4218 20.9969 34.4218C20.0088 34.4218 19.2078 35.2228 19.2078 36.2109C19.2078 37.199 20.0088 38 20.9969 38Z" fill="#F8F7F8" stroke="#926426" stroke-width="0.617842" stroke-miterlimit="10"/>
<path d="M34.4027 22.8252C35.3908 22.8252 36.1918 22.0242 36.1918 21.0361C36.1918 20.048 35.3908 19.2469 34.4027 19.2469C33.4145 19.2469 32.6135 20.048 32.6135 21.0361C32.6135 22.0242 33.4145 22.8252 34.4027 22.8252Z" fill="#F8F7F8" stroke="#926426" stroke-width="0.617842" stroke-miterlimit="10"/>
<path d="M7.59748 22.8252C8.58559 22.8252 9.38662 22.0242 9.38662 21.0361C9.38662 20.048 8.58559 19.2469 7.59748 19.2469C6.60937 19.2469 5.80835 20.048 5.80835 21.0361C5.80835 22.0242 6.60937 22.8252 7.59748 22.8252Z" fill="#F8F7F8" stroke="#926426" stroke-width="0.617842" stroke-miterlimit="10"/>
</svg>
