<svg width="64" height="64" viewBox="0 0 64 64" fill="none" xmlns="http://www.w3.org/2000/svg">
<rect x="0.5" y="0.5" width="63" height="63" rx="31.5" fill="#231F20"/>
<rect x="0.5" y="0.5" width="63" height="63" rx="31.5" stroke="#9F9196"/>
<path d="M31.9993 25.29C34.7786 25.29 37.0317 24.1635 37.0317 22.7738C37.0317 21.3841 34.7786 20.2576 31.9993 20.2576C29.2199 20.2576 26.9668 21.3841 26.9668 22.7738C26.9668 24.1635 29.2199 25.29 31.9993 25.29Z" fill="#C1B8BB"/>
<path d="M31.9997 50.4524C40.4543 50.4524 47.0971 46.3928 47.0971 41.2262V22.7738C47.0971 17.6071 40.4543 13.5476 31.9997 13.5476C23.5452 13.5476 16.9023 17.6071 16.9023 22.7738V41.2262C16.9023 46.3928 23.5263 50.4524 31.9997 50.4524ZM31.9997 17.2381C38.6615 17.2381 43.3228 20.1536 43.3228 22.7738C43.27 23.3431 43.0826 23.8927 42.7755 24.3792C41.4922 26.2244 38.001 28.0696 33.3396 28.2911H30.7165C25.9797 27.9958 22.4318 26.2613 21.2051 24.3238C20.9417 23.8923 20.7626 23.4168 20.6767 22.9214V22.7738C20.6767 20.1536 25.3191 17.2381 31.9997 17.2381Z" fill="#C1B8BB"/>
</svg>
