<svg width="123" height="36" viewBox="0 0 123 36" fill="none" xmlns="http://www.w3.org/2000/svg">
<path d="M31.7361 26.3915C30.6872 25.623 28.4068 22.8421 28.2827 19.0804C28.2827 19.0804 32.0598 19.2707 33.0138 23.0592L32.9603 23.2226C32.5441 21.8565 31.1472 19.9074 29.1686 19.6732C29.1686 19.6732 30.4657 22.9567 32.2277 25.1449L32.1791 25.2718C30.4171 23.4056 28.8838 20.2563 28.8838 20.2563C28.7549 22.1395 30.6677 25.2181 31.7629 26.2549L31.7386 26.3915H31.7361Z" fill="#F0EEEE"/>
<path d="M35.5386 22.6545C35.3196 21.1567 36.2979 19.2002 36.478 18.9124C36.1349 19.0588 34.9959 19.7394 34.3583 20.8859L34.2025 20.5907C34.716 19.693 35.507 18.9612 36.1519 18.6001C34.8693 18.6318 33.7279 19.2441 33.3678 19.5149L33.2363 19.3832C34.587 18.1952 36.7482 18.0781 37.3688 18.1757C37.3688 18.1757 35.4413 20.5468 35.6238 22.9302L35.5386 22.6545Z" fill="#F0EEEE"/>
<path d="M29.0771 14.6361C28.7632 15.0361 28.6536 16.6315 28.6536 16.6315C28.5393 16.5925 28.291 16.5779 28.291 16.5779C28.3154 14.9288 28.8508 13.8164 28.8508 13.8164C30.2063 14.2165 32.2287 15.607 32.9053 16.9023C32.9053 16.9023 32.8274 16.9365 32.7252 16.9828C32.7252 16.9828 31.4694 15.2069 29.6466 14.5751C30.3962 15.3777 31.2553 17.6073 31.2553 17.6073C31.2553 17.6073 31.1798 17.5463 30.9949 17.439C30.9949 17.439 29.6466 14.7873 29.0771 14.6385V14.6361Z" fill="#F0EEEE"/>
<path d="M35.743 16.402C35.8184 15.9166 36.9549 14.7822 37.1764 14.6944C36.3246 14.7822 34.7743 15.3848 34.7743 15.3848L34.6746 15.2555C34.6746 15.2555 36.1226 14.3504 38.145 14.0992C38.0817 15.536 37.7143 16.2605 37.7143 16.2605C37.6266 16.2483 37.539 16.2435 37.41 16.2483C37.41 16.2483 37.6899 15.4433 37.6875 14.7773C37.2811 14.9066 36.3319 15.5946 35.8938 16.3654L35.743 16.3996V16.402Z" fill="#F0EEEE"/>
<path d="M31.7212 12.9991C31.3658 12.0306 30.9716 11.2792 30.7501 11.15C30.5408 11.2012 30.076 11.6744 29.9446 12.0306L29.7061 11.9452C30.1952 10.9719 30.7112 10.5572 30.7112 10.5572C32.0156 11.1231 33.3201 12.7844 33.5489 13.2357L33.3712 13.3284C32.7628 12.499 31.6408 11.5037 31.3464 11.3305C31.6944 11.8452 32.0546 13.2186 32.0546 13.2186C31.9402 13.1332 31.7212 12.9991 31.7212 12.9991Z" fill="#F0EEEE"/>
<path d="M35.9622 12.5109C35.9622 12.5109 36.5171 11.074 37.2399 10.5276C36.3394 10.7618 35.2126 11.3741 35.2126 11.3741C35.1737 11.3131 35.1055 11.2326 35.0447 11.1667C36.741 10.1739 38.0746 10.069 38.0746 10.069C38.189 10.5081 38.0746 11.5351 37.6682 12.1815C37.6682 12.1815 37.3543 12.2254 37.2301 12.2425C37.2301 12.2425 37.7996 11.4009 37.7826 10.5154C36.9868 10.8252 36.3735 12.384 36.3735 12.384C36.2713 12.406 36.0693 12.4718 35.9622 12.5084V12.5109Z" fill="#F0EEEE"/>
<path d="M33.4409 8.12543C33.2389 8.19374 32.4966 8.68163 32.1218 9.05974L31.8784 8.8963C32.8276 7.86929 34.0079 7.33993 34.0079 7.33993C34.6845 8.16203 34.9765 9.11097 34.9765 9.11097L34.7405 9.21343C34.7405 9.21343 34.2659 8.15471 33.9909 8.08396C33.7159 8.78165 33.6477 9.80865 33.6477 9.80865L33.3727 9.98186L33.1707 9.78914C33.2729 8.63772 33.4409 8.12543 33.4409 8.12543Z" fill="#F0EEEE"/>
<path d="M35.7336 6.71999C35.7945 6.87856 36.1279 7.56892 36.2131 7.67138C36.3761 7.65918 36.5149 7.62259 36.8288 7.77383C37.0941 7.90069 37.2912 8.14219 37.3374 8.22757C37.722 8.20562 38.0554 8.19342 38.0992 8.18854L38.1162 8.00802C38.1162 8.00802 37.3058 8.14463 37.2523 7.71285C37.2523 7.71285 37.133 7.52501 38.0554 6.31992V6.19551L37.9751 6.22478C37.8023 6.47605 37.1671 7.44939 36.7704 7.42255C36.4078 7.4006 36.0354 7.09323 35.9916 6.62973L35.7312 6.71999H35.7336Z" fill="#F0EEEE"/>
<path d="M48.1492 26.0596C49.2346 25.0326 51.128 21.9857 51.0015 20.122C51.0015 20.122 49.4828 23.2396 47.7403 25.0863L47.6916 24.9594C49.4342 22.7932 50.7192 19.5438 50.7192 19.5438C48.76 19.7756 47.3777 21.7052 46.9664 23.0566L46.9128 22.8956C47.8547 19.1462 51.5953 18.9584 51.5953 18.9584C51.4712 22.681 49.2151 25.4327 48.1759 26.1962L48.1516 26.0596H48.1492Z" fill="#F0EEEE"/>
<path d="M44.2434 22.5202C44.4575 21.059 43.5011 19.1489 43.3259 18.8684C43.6593 19.0123 44.7715 19.6758 45.3945 20.7955L45.5478 20.5077C45.0465 19.6319 44.275 18.9171 43.6447 18.5659C44.8956 18.5976 46.0102 19.1952 46.3631 19.4587L46.4921 19.3294C45.173 18.1707 43.063 18.0536 42.457 18.1512C42.457 18.1512 44.3383 20.4662 44.1606 22.791L44.2434 22.5227V22.5202Z" fill="#F0EEEE"/>
<path d="M50.9438 14.5656C51.2894 15.0047 51.4062 16.7489 51.4062 16.7489C51.5327 16.7075 51.8029 16.6904 51.8029 16.6904C51.7761 14.8876 51.192 13.6704 51.192 13.6704C49.7099 14.107 47.4977 15.6292 46.7578 17.0466C46.7578 17.0466 46.843 17.0831 46.9549 17.1344C46.9549 17.1344 48.33 15.1926 50.3232 14.4998C49.503 15.3755 48.5636 17.815 48.5636 17.815C48.5636 17.815 48.6464 17.7467 48.8484 17.6296C48.8484 17.6296 50.3232 14.7291 50.9462 14.5656H50.9438Z" fill="#F0EEEE"/>
<path d="M44.3048 16.5409C44.2147 15.97 42.8786 14.6381 42.6182 14.5356C43.6185 14.6381 45.4413 15.3455 45.4413 15.3455L45.5606 15.1919C45.5606 15.1919 43.8594 14.1283 41.4817 13.8331C41.5571 15.5236 41.9879 16.375 41.9879 16.375C42.0901 16.3604 42.1923 16.353 42.3432 16.3604C42.3432 16.3604 42.0147 15.4139 42.0171 14.6308C42.4941 14.782 43.6112 15.5919 44.1247 16.4994L44.3023 16.5409H44.3048Z" fill="#F0EEEE"/>
<path d="M39.916 4C32.2012 4 25.949 10.2669 25.949 18C25.949 25.7331 32.2012 32 39.916 32C47.6308 32 53.883 25.7331 53.883 18C53.883 10.2669 47.6308 4 39.916 4ZM37.1197 27.1528C37.2024 27.3285 37.2925 27.5212 37.3898 27.7358C37.3679 27.748 37.346 27.7602 37.3241 27.77C37.1927 27.8383 37.0856 27.8993 36.9785 28.0383C36.0951 27.3504 35.3869 26.4649 35.0145 25.5818C34.8685 25.2378 34.7979 24.7402 34.7127 24.1645C34.501 22.7033 34.2138 20.7249 32.4129 19.2612C32.997 18.7611 34.8247 17.3975 37.4482 17.3975C37.8522 17.3975 38.2635 17.4292 38.6748 17.495C37.8327 18.5806 36.336 20.5468 36.3068 22.8716C36.2752 25.3501 36.5575 25.9526 37.1221 27.1528H37.1197ZM38.2246 16.7754C37.9934 16.7461 37.733 16.7315 37.4531 16.7315C36.5623 16.7315 35.567 16.8803 34.9683 17.0925C34.6908 16.6363 34.0435 15.6142 33.5007 15.0702C34.6616 14.2335 37.4555 13.3968 38.7916 13.3968C38.8062 13.3968 38.8208 13.3968 38.833 13.3968C38.833 13.4602 38.833 13.526 38.8354 13.5919C38.8476 14.3237 38.8622 15.3142 38.2246 16.773V16.7754ZM38.1467 12.8284C37.1294 12.9211 35.9734 13.2187 35.4477 13.3846C35.0656 12.7308 34.3574 11.6721 33.8123 11.15C34.9147 10.367 36.9663 9.34727 38.8184 9.31312C39.0228 10.506 38.7624 11.8794 38.1467 12.8259V12.8284ZM36.0002 8.66423C36.3092 8.44956 36.7862 8.53982 36.8982 9.06186C36.6767 9.11309 36.3677 9.19359 36.1632 9.26921C36.1048 8.99599 36.0561 8.79596 36.0026 8.66423H36.0002ZM36.594 5.90521C36.594 5.91741 36.594 5.9296 36.594 5.94424C36.594 6.08573 36.6037 6.27357 36.6548 6.44189C36.7011 6.60289 36.8179 6.78341 37.0369 6.78341H37.0467H37.0564C37.4433 6.77365 37.6137 6.48092 37.6064 6.27113C37.604 6.12476 37.5212 5.84422 37.4726 5.68322C37.75 5.61492 38.429 5.45391 38.7551 5.38073C38.7673 5.74421 38.7843 6.53215 38.7892 6.82244C38.6359 6.83708 38.3633 6.87123 38.1686 6.97125C38.0469 7.03224 37.8303 7.16884 37.8303 7.44938C37.8303 7.46158 37.8303 7.47378 37.8303 7.49085C37.84 7.71528 38.0542 7.81042 38.2173 7.79822C38.4241 7.79822 38.6651 7.71772 38.8257 7.65673L38.7575 8.63983C38.5093 8.64959 37.8863 8.68618 37.3995 8.79108C37.2389 8.3227 36.7692 8.00314 36.2849 8.0007C36.1754 8.0007 36.0634 8.01777 35.9539 8.05437C35.7203 7.50061 35.236 6.66876 35.0437 6.34675L36.5964 5.90765L36.594 5.90521ZM34.2333 6.57362C35.0242 7.65917 35.5451 8.66423 35.6667 9.33752C34.8904 9.66196 33.822 10.2694 33.3158 10.6719C32.7122 10.1255 31.6609 9.42046 30.8407 9.01063C31.7241 8.17146 32.7852 7.26154 34.2333 6.57606V6.57362ZM30.3467 9.53999C32.9434 10.6451 34.1189 12.5917 34.7541 13.648C34.0483 13.9505 33.3523 14.3359 32.997 14.5945C32.3107 13.9652 30.5268 12.5893 28.5701 12.038C28.9716 11.1476 29.9378 10.0108 30.3467 9.53755V9.53999ZM28.2269 12.7405C30.0035 13.1675 32.9045 14.8043 34.3233 17.3243C33.5251 17.6365 32.5565 18.1537 31.8921 18.7977C30.9819 17.9854 29.1615 17.1803 27.3216 17.1803C27.3581 16.4266 27.5211 14.1335 28.2269 12.743V12.7405ZM38.154 30.0484L37.7792 30.0436C31.7923 29.1946 27.4311 24.1328 27.3313 17.961C27.4554 17.9512 27.582 17.9463 27.7061 17.9463C30.0327 17.9463 31.8288 19.7003 32.3228 20.237C33.4569 21.4689 33.6541 22.6057 33.9826 24.4889C34.024 24.7207 34.0654 24.9646 34.1116 25.2183C34.4377 27.0138 36.3287 28.5653 37.0248 28.8799C37.0564 28.8946 37.0905 28.9019 37.1221 28.9019C37.2048 28.9019 37.2852 28.858 37.329 28.7824C37.5529 28.3945 37.8327 28.2067 38.1881 28.2067C38.6943 28.2067 39.108 28.6116 39.108 29.1068C39.108 29.602 38.6602 30.0484 38.1516 30.0484H38.154ZM52.5153 17.1779C50.6754 17.1779 48.855 17.9829 47.9448 18.7953C47.2804 18.1537 46.3118 17.6365 45.5135 17.3218C46.9324 14.8019 49.8333 13.165 51.6099 12.7381C52.3157 14.1286 52.4812 16.4217 52.5153 17.1755V17.1779ZM43.53 22.874C43.5008 20.5517 42.0041 18.583 41.162 17.4975C41.5733 17.434 41.9822 17.3999 42.3886 17.3999C45.0073 17.3999 46.8399 18.7635 47.424 19.2636C45.6255 20.7273 45.3383 22.7057 45.1265 24.1669C45.0438 24.7426 44.9708 25.2378 44.8248 25.5842C44.4524 26.4698 43.7418 27.3528 42.8608 28.0408C42.7537 27.9017 42.6466 27.8383 42.5152 27.7724C42.4933 27.7602 42.4714 27.7505 42.4495 27.7383C42.5468 27.5236 42.6369 27.3309 42.7196 27.1553C43.2818 25.955 43.5641 25.3525 43.5349 22.874H43.53ZM40.999 13.5968C40.999 13.5309 40.999 13.4651 41.0014 13.4016C41.016 13.4016 41.0306 13.4016 41.0428 13.4016C42.3789 13.4016 45.1728 14.2384 46.3337 15.0751C45.7909 15.6191 45.1436 16.6412 44.8661 17.0974C44.2675 16.8827 43.2721 16.7364 42.3813 16.7364C42.099 16.7364 41.841 16.751 41.6098 16.7803C40.9722 15.3239 40.9868 14.3311 40.999 13.5992V13.5968ZM51.2643 12.0404C49.3076 12.5917 47.5237 13.9676 46.8374 14.597C46.4821 14.3384 45.7861 13.953 45.0803 13.6505C45.7155 12.5942 46.891 10.6451 49.4877 9.54243C49.8966 10.0157 50.8628 11.1525 51.2643 12.0429V12.0404ZM48.9937 9.01063C48.1735 9.4229 47.1222 10.1279 46.5186 10.6719C46.0124 10.2694 44.944 9.66196 44.1677 9.33752C44.2894 8.66667 44.8102 7.65917 45.6011 6.57362C47.0467 7.2591 48.1103 8.16902 48.9937 9.00819V9.01063ZM41.6683 6.97369C41.476 6.87611 41.201 6.83952 41.0477 6.82732C41.0525 6.53459 41.0671 5.74665 41.0817 5.38317C41.4078 5.45635 42.0844 5.61979 42.3643 5.68566C42.3132 5.84666 42.2329 6.1272 42.2304 6.27357C42.2207 6.4858 42.3935 6.77609 42.7805 6.78585H42.7975C43.0141 6.78585 43.1333 6.60289 43.1796 6.44189C43.2307 6.27601 43.2404 6.08573 43.2404 5.94424C43.2404 5.9296 43.2404 5.91741 43.2404 5.90521L44.7931 6.34431C44.6009 6.66632 44.1166 7.49817 43.8829 8.05193C43.7734 8.01533 43.6615 7.99826 43.5519 7.99826C43.0652 7.99826 42.5979 8.32026 42.4373 8.78864C41.9506 8.68374 41.3251 8.64715 41.0793 8.63739L41.0112 7.6543C41.1718 7.71772 41.4103 7.79334 41.6196 7.79578C41.7826 7.80798 41.9968 7.71284 42.0065 7.48597C42.0065 7.47134 42.0065 7.46158 42.0065 7.44694C42.0065 7.16641 41.7924 7.0298 41.6683 6.96881V6.97369ZM43.8342 8.66667C43.7807 8.7984 43.732 8.99843 43.6736 9.27165C43.4668 9.19847 43.1577 9.11553 42.9386 9.0643C43.0482 8.53982 43.5276 8.45199 43.8367 8.66667H43.8342ZM41.016 9.318C42.8681 9.35215 44.9197 10.3694 46.0221 11.1549C45.477 11.6769 44.7664 12.7381 44.3867 13.3894C43.861 13.2211 42.705 12.9259 41.6877 12.8332C41.072 11.8867 40.8092 10.5109 41.016 9.32044V9.318ZM42.0552 30.046L41.6829 30.0509C41.1718 30.0509 40.724 29.6118 40.724 29.1093C40.724 28.6067 41.1353 28.2091 41.6439 28.2091C41.9992 28.2091 42.2791 28.3969 42.503 28.7848C42.5468 28.8604 42.6271 28.9043 42.7099 28.9043C42.744 28.9043 42.7756 28.897 42.8072 28.8824C43.5057 28.5677 45.3967 27.0162 45.7204 25.2208C45.7666 24.9671 45.808 24.7231 45.8494 24.4914C46.1779 22.6081 46.375 21.4713 47.5091 20.2394C48.0056 19.7027 49.8017 17.9488 52.1259 17.9488C52.25 17.9488 52.3765 17.9537 52.5007 17.9634C52.4009 24.1377 48.0397 29.1971 42.0528 30.046H42.0552Z" fill="#F0EEEE"/>
<path d="M48.1935 12.975C48.5756 11.9334 49.0015 11.1259 49.2375 10.9869C49.4614 11.043 49.9628 11.5504 50.1039 11.9334L50.3619 11.8407C49.8362 10.7942 49.2814 10.3477 49.2814 10.3477C47.8771 10.9576 46.4753 12.7433 46.2295 13.2263L46.4218 13.3263C47.0764 12.4359 48.2811 11.3625 48.5975 11.1771C48.2227 11.7309 47.8357 13.2092 47.8357 13.2092C47.9574 13.1165 48.1935 12.975 48.1935 12.975Z" fill="#F0EEEE"/>
<path d="M43.9197 12.4991C43.9197 12.4991 43.3453 11.0159 42.6006 10.4524C43.5278 10.6939 44.6912 11.3257 44.6912 11.3257C44.7325 11.2623 44.8031 11.1794 44.8639 11.1135C43.1117 10.0865 41.7366 9.98161 41.7366 9.98161C41.6198 10.4353 41.7366 11.4941 42.1552 12.1625C42.1552 12.1625 42.4789 12.2064 42.6079 12.2235C42.6079 12.2235 42.0214 11.355 42.0384 10.4402C42.861 10.7598 43.4938 12.3698 43.4938 12.3698C43.6009 12.3918 43.8077 12.4601 43.9197 12.4991Z" fill="#F0EEEE"/>
<path d="M46.3811 8.17888C46.5734 8.24475 47.2816 8.71068 47.6393 9.07172L47.8705 8.9156C46.9652 7.93494 45.8384 7.42997 45.8384 7.42997C45.1935 8.21547 44.9136 9.12295 44.9136 9.12295L45.1399 9.22053C45.1399 9.22053 45.5926 8.2106 45.8554 8.14229C46.1183 8.80826 46.184 9.78892 46.184 9.78892L46.4468 9.9548L46.6391 9.7694C46.5417 8.67165 46.3811 8.18132 46.3811 8.18132V8.17888Z" fill="#F0EEEE"/>
<path d="M44.0646 6.74202C44.0037 6.89815 43.6752 7.57876 43.59 7.68121C43.4294 7.66902 43.2907 7.63242 42.9816 7.78123C42.7187 7.90564 42.524 8.14471 42.4802 8.22765C42.1006 8.20569 41.772 8.1935 41.7282 8.18862L41.7112 8.01054C41.7112 8.01054 42.5094 8.14715 42.563 7.72024C42.563 7.72024 42.6798 7.53485 41.7696 6.34683V6.22486L41.8475 6.25413C42.0178 6.50296 42.6457 7.45922 43.0375 7.43483C43.3929 7.41287 43.7628 7.11038 43.8066 6.6542L44.0621 6.74446L44.0646 6.74202Z" fill="#F0EEEE"/>
<path d="M26.2742 5.94891L25.936 6.21237L25.4663 7.02227L23.9622 7.60774L23.2662 8.05904C23.1153 8.13466 22.9644 8.17125 22.816 8.17125H22.7794L21.6891 7.98341L19.1508 7.90779L17.3839 7.71995L15.6925 7.83217L15.033 7.71995L14.7701 7.75655L14.5633 8.64207L14.6582 9.11288L14.6947 9.71542V9.88619L14.4878 10.7717L14.5243 11.4499L14.4489 12.0353L14.5608 12.4696C14.2591 12.494 14.0692 12.5452 13.9865 12.6208C13.9037 12.6964 13.8575 12.8794 13.8453 13.1672C14.2591 13.2307 14.4854 13.3429 14.5219 13.5063L14.4465 14.8627V15.7482C14.4465 16.1263 14.2031 16.5337 13.7139 16.9728C13.7772 17.085 13.8332 17.1777 13.8843 17.246C13.9329 17.3143 14.0133 17.368 14.1203 17.407C14.2274 17.4436 14.3369 17.4704 14.4489 17.4826L14.5608 17.7095C14.3978 17.8095 14.2883 17.9095 14.2323 18.012C14.1763 18.112 14.1349 18.2828 14.1106 18.5218L14.5608 19.0317V20.7661C14.5608 20.9662 14.4732 21.1613 14.298 21.3516L14.4854 21.8029L14.4099 22.3127L14.5608 23.0104L14.4854 23.5569L14.5219 24.0082L14.5584 24.7815C14.0814 24.9815 13.8429 25.2645 13.8429 25.6304C13.8429 25.9329 14.0692 26.2012 14.5195 26.4403L14.8018 29.6067L14.5195 29.8336L14.1812 30.0043L13.1834 30.8533L12.8256 30.8898H12.5628L12.3364 31.1533C12.1855 31.0533 12.0663 31.0021 11.9787 31.0021L11.7523 31.0777L11.526 30.5678C11.5503 30.4922 11.5674 30.4337 11.5723 30.3898C11.5796 30.3458 11.5869 30.3044 11.6015 30.2678L11.7523 29.4189L11.6015 28.4187L11.7523 26.9477L11.8643 24.779L12.0517 23.1568V22.7226L12.4094 22.2713L11.9397 20.5368L12.1271 19.3293L12.0152 17.7461L11.9397 16.6727L11.9032 16.6361C11.9032 16.4361 12.0225 15.9946 12.261 15.3164L12.1296 14.9017C11.8546 14.2113 11.7158 13.7332 11.7158 13.4697V13.4331L11.7523 12.8867L11.526 11.9256L11.5625 11.3791L11.3191 10.0033L11.2437 9.53246L11.8278 8.38348C12.0906 8.23224 12.222 8.08831 12.222 7.94926C12.222 7.82485 12.2099 7.72239 12.1855 7.64677L11.1318 7.43942H10.7935L10.3992 7.40283L9.55228 7.06374L7.86086 7.21499L5.28357 6.95153L2.49941 7.10277L2.04918 7.02715C1.73523 7.39307 1.45292 7.57359 1.20225 7.57359H1.0903L0.545149 7.49796L0 7.40283C0.0121685 7.02471 0.0584088 6.75881 0.141155 6.60269C0.221467 6.44656 0.369923 6.27824 0.584088 6.1026L1.97617 5.00973C2.36556 4.83409 2.91071 4.74627 3.61161 4.74627H4.12026C4.27115 5.10974 4.47801 5.2927 4.74085 5.2927C5.00369 5.2927 5.286 5.14877 5.62428 4.85848L6.47121 4.9341L8.12613 5.48054L9.51821 5.40492L10.6085 5.66838L12.7891 5.78059L13.7115 6.29044L14.1447 6.32703L14.1812 6.17578L14.6509 6.21237C15.4418 6.2758 15.9334 6.32459 16.1281 6.36362C16.3228 6.40021 16.52 6.50755 16.7195 6.68319L17.3766 6.83443L17.7149 6.59049L18.3355 6.5539L19.1435 6.21481L20.5356 6.25141L21.458 6.06357C21.8473 6.19042 22.1662 6.25141 22.4168 6.25141C23.6337 6.25141 24.8043 5.96843 25.9335 5.40248L26.1599 5.51469L26.2718 5.94891H26.2742Z" fill="#F0EEEE"/>
<path d="M86.6091 28.6057C86.6091 29.0204 86.4023 29.4668 85.9885 29.945C85.6502 30.3109 85.3801 30.4914 85.1805 30.4914C85.1562 30.4914 85.0686 30.467 84.9177 30.4158L84.5794 30.6427C84.3044 30.8549 84.0829 30.9622 83.9223 30.9622L83.6205 30.9256L83.657 30.4548L83.8079 29.379L83.7714 28.6057L84.1097 26.3248L83.9223 25.3247L83.8104 23.1194L83.6984 22.3461L83.7349 20.4604L83.6595 19.2163L83.7349 18.482L83.4526 16.0499L83.696 15.5595L83.3772 15.4278V14.9765L83.1143 13.8446L83.1508 12.7713L82.9634 12.32L82.4937 12.4322L82.3428 12.659L82.4183 13.2055L81.4229 14.7131L81.384 15.1278L81.0651 15.4303L80.8777 15.9401L80.6149 16.3353L80.503 17.0135L79.9943 18.1454L79.9189 18.5601C79.5051 18.8991 79.2228 19.2065 79.0719 19.4846L78.4513 20.88L76.7599 23.7829L75.5552 26.0272L75.2535 26.4785L74.1437 27.5153C74.005 27.6275 73.9368 27.7348 73.9368 27.8349C73.9612 27.8592 73.9806 27.8861 73.9928 27.9105C74.0682 28.213 74.1048 28.4081 74.1048 28.4959L74.0682 28.6838C73.8297 28.7228 73.657 28.7936 73.5523 28.9009C73.4477 29.0082 73.3479 29.1814 73.2603 29.4181C73.0972 29.8572 72.9634 30.1621 72.8563 30.3328C72.7492 30.5036 72.6129 30.6305 72.4425 30.7183C72.2722 30.8061 72.0191 30.889 71.6808 30.9622C71.3547 30.5963 71.1673 30.3597 71.1162 30.245C71.0651 30.1328 71.0213 29.9425 70.9848 29.6791L70.8339 29.5278C70.8339 29.2644 70.6757 29.057 70.3642 28.9058L70.2133 29.057L69.931 28.5667L69.4807 27.3226L69.0865 26.7956L68.6727 25.6272L68.203 24.9295C68.3661 24.627 68.4464 24.344 68.4464 24.0805C68.4464 23.8805 68.4026 23.7415 68.315 23.6658L67.7139 23.156L65.3629 18.482L64.7788 17.2574H64.8153L64.9273 16.7476L64.6255 16.1255L64.5135 15.5595L64.1193 15.7474L63.8929 15.3522C63.5036 14.6862 63.2602 14.2276 63.1604 13.9763C63.0606 13.7251 62.9341 13.347 62.7832 12.8444C62.4571 12.8444 62.2502 12.7444 62.1626 12.5419L61.8803 13.164H61.5785L61.5031 13.3152C61.6783 13.5787 61.7659 13.8373 61.7659 14.0886L61.6539 15.5205C61.6418 15.7474 61.6247 15.9255 61.6077 16.0572C61.5882 16.1889 61.5566 16.2889 61.5128 16.3597C61.469 16.428 61.3789 16.5573 61.2402 16.7451L61.6904 17.6697L61.615 18.1405L61.5785 19.4797L61.4665 20.2896L61.5785 24.3611L61.3522 24.9636C61.5274 25.3271 61.615 25.693 61.615 26.0565V26.4346C61.2889 26.4712 61.0747 26.5541 60.9749 26.6786C60.8752 26.8054 60.8046 27.0567 60.7681 27.4323L61.4641 27.6763L61.5006 28.091V28.5252C61.5006 28.9033 61.4495 29.1351 61.3497 29.2229L59.9211 30.184L59.2251 30.75L58.9623 30.8061L58.568 30.75L58.5315 30.5231L58.4561 30.184L58.8138 29.2985V27.4689L59.1156 25.2076L59.0791 24L59.0426 23.5853L59.118 22.9999L59.0815 22.529C59.2689 22.39 59.3833 22.1826 59.4198 21.907L59.6267 21.7948C59.5902 21.5557 59.5439 21.4045 59.4952 21.3435L59.2689 20.8727C59.2689 20.8092 59.2665 20.7604 59.2592 20.7214C59.2519 20.6848 59.2421 20.6458 59.23 20.6092C59.23 20.4214 59.3371 20.214 59.5488 19.9871C59.3346 19.6237 59.23 19.3017 59.23 19.026V18.9138L59.3419 16.5963L59.23 14.5789L59.2665 14.1642L59.8871 14.352C60.0112 14.1886 60.0745 14.0495 60.0745 13.9373V13.8056L59.2275 13.73L59.1521 12.8054L59.7727 12.7688L59.8481 12.3907C59.8481 12.1638 59.6656 11.9833 59.303 11.8443L59.1156 10.8075H59.303L59.3395 10.5635L59.0377 8.71689L59.0742 7.83136L58.7359 7.09709C58.7359 6.84583 58.9623 6.61408 59.4125 6.39941L59.7703 6.47503L59.9966 5.9847L60.3909 5.81394L61.2378 5.17236C61.4252 5.03332 61.5882 4.96501 61.727 4.96501L62.1212 5.06015C62.1334 5.29922 62.1748 5.47242 62.2429 5.57731C62.311 5.68465 62.4595 5.79442 62.6858 5.90664C62.7102 6.07008 62.7491 6.21645 62.7978 6.35062C62.8489 6.48235 62.9316 6.64335 63.0509 6.83119C63.1701 7.01903 63.3356 7.28981 63.5498 7.64109L63.3794 8.05579L63.192 8.67785L63.2675 8.90472L63.8516 9.1877L64.3018 10.6026L63.9246 11.188L64.1509 11.3003L64.3018 11.6955C64.6766 11.7198 64.9905 11.954 65.2412 12.3931L65.8423 13.7324L66.5384 15.7108C66.2123 16.0011 66.0492 16.2328 66.0492 16.4085L66.2366 16.8598L66.6503 16.8964C66.8645 16.9208 67.0008 16.9647 67.0641 17.0281C67.1273 17.0915 67.1955 17.2281 67.2709 17.4428L66.9326 17.9892C67.0714 18.1649 67.1955 18.2527 67.3074 18.2527H67.5338L67.7771 18.5918C68.2663 19.509 68.5097 20.0628 68.5097 20.2506L68.3588 20.8361L68.2274 21.2703L68.5851 21.4581L68.9623 21.5338L69.3955 22.1192L70.1281 22.8925L70.3155 23.6268L70.7292 24.0049L71.2379 25.249L71.6711 25.7003L72.2722 26.9079L72.591 27.1713L73.0412 26.7371L74.3944 25.21L75.0904 24.0025L75.711 22.8535L76.6334 21.2703L78.3637 17.2184L79.0598 16.1621L79.2472 14.9741L80.206 12.8054L80.3569 12.2199L80.6003 12.1443L80.8266 11.9565V11.8052L81.1284 11.654L81.0895 11.3344L80.7512 11.1832C80.851 10.6562 80.9775 10.3464 81.1284 10.2586L81.4862 10.1074L81.8245 9.82439C81.6736 9.56093 81.4862 9.27796 81.2598 8.97547C81.4594 8.69981 81.5616 8.47294 81.5616 8.2973C81.5616 8.20948 81.5494 8.14118 81.5227 8.08995L81.861 7.71183L82.4451 6.82631L83.5548 5.90176C84.0318 5.48705 84.319 5.2797 84.4188 5.2797L84.869 5.39192L84.7571 6.67263L84.908 6.82387L85.2657 6.78728C85.6162 6.78728 85.7914 6.8873 85.7914 7.08977L85.7525 7.82405L85.6016 8.44611L85.3752 8.37048L85.2998 8.70957L85.5626 9.40725L85.6381 13.4226V13.6104C85.6381 13.8105 85.587 13.9812 85.4872 14.1203L84.9785 14.8179C84.9274 14.8692 84.9031 15.018 84.9031 15.2692C85.0029 15.4205 85.1027 15.5181 85.2049 15.562C85.3047 15.6059 85.4604 15.6278 85.6746 15.6278L85.7111 16.3255L85.6356 19.4358L85.9374 20.7922L86.1078 23.1487L86.2587 24.7319C86.2587 24.9465 86.2076 25.2027 86.1078 25.5052C86.2708 25.7052 86.3706 25.876 86.4096 26.015C86.4461 26.1541 86.485 26.5127 86.5215 27.0884L86.5969 28.5594V28.596L86.6091 28.6057Z" fill="#F0EEEE"/>
<path d="M123 17.8991C123 17.9869 122.988 18.0552 122.961 18.1065L122.623 19.2189L122.659 20.18L122.377 20.6898C122.326 20.6655 122.238 20.6533 122.114 20.6533C122.039 20.6533 121.97 20.7167 121.907 20.8411C121.844 20.9679 121.812 21.1119 121.812 21.2753C121.812 21.3265 121.824 21.3631 121.849 21.3875C122.099 21.8022 122.224 22.073 122.224 22.1974C122.224 22.2974 122.199 22.3853 122.148 22.4609C121.885 22.7122 121.703 22.9951 121.603 23.3098L121.189 23.4977L121.301 23.6294L121.189 23.7416L121.491 23.9685L121.454 24.0807L121.116 24.4002L120.683 25.1174L120.381 25.437C120.206 25.2614 120.062 25.1736 119.948 25.1736C119.722 25.1736 119.61 25.3004 119.61 25.5517C119.61 25.6517 119.71 25.8346 119.912 26.0981C119.522 26.7519 118.885 27.3544 117.994 27.9082C117.067 28.4985 116.108 29.0328 115.117 29.5109C114.127 29.989 113.362 30.2769 112.822 30.3769L112.445 30.4525C111.506 30.6282 110.914 30.716 110.678 30.716H110.603L109.87 30.6794L109.4 30.755L108.704 30.3403L108.179 30.5672C107.94 30.7306 107.772 30.8111 107.67 30.8111H107.519C107.419 30.5721 107.32 30.3989 107.217 30.294C107.118 30.1866 106.959 30.089 106.748 30.0012C105.969 30.4037 105.368 30.6038 104.942 30.6038C104.791 30.6038 104.647 30.5525 104.509 30.4525C104.234 30.4525 104.083 30.4403 104.058 30.4135L102.742 30.0378L101.632 30.0744L101.199 29.7158L100.578 29.7914L100.053 29.7158L99.281 29.4889L96.8936 28.9425L96.2365 28.4156L95.3896 28.096L94.5061 27.1715C94.3041 27.0202 94.0096 26.9446 93.6227 26.9446L93.114 26.3591C93.2138 26.1201 93.2649 25.9371 93.2649 25.8127C93.2649 25.4224 92.8001 25.154 91.8728 25.0028V24.8515L91.6465 24.7759L91.4202 24.3612L91.2328 24.1539V23.7392L90.8385 22.6073L90.7631 22.2291L90.4613 20.5703L90.5733 18.9481L90.7241 18.4773L90.8361 17.4405L91.7585 15.0084L91.8704 14.5741C92.1333 13.9204 92.547 13.4374 93.1116 13.1227V12.8787L94.0705 11.8054C94.2214 11.8566 94.309 11.881 94.3333 11.881C94.5207 11.881 94.6521 11.8054 94.7276 11.6541L94.9904 10.8442L95.3482 10.3734C95.4869 10.0978 95.6743 9.8904 95.9128 9.75135L96.4969 9.48789L97.0055 8.86583L98.1907 8.05594C98.9817 7.54121 99.4319 7.28263 99.5439 7.28263L99.8457 7.39485L100.354 6.7923L100.693 6.71668L104.248 5.32131C104.448 5.2213 104.694 5.17007 104.981 5.17007C105.244 5.17007 105.565 5.24569 105.94 5.39694L106.241 5.28472L106.353 4.92612L106.899 5.00175L107.2 5.05785H107.295L108.218 4.81391L109.685 4.88953L110.401 4.73829L111.021 4.81391L111.605 4.77732L112.265 5.00419L113.375 5.21154L114.183 5.66284L116.495 6.51177L116.721 6.71912L117.154 6.98258V7.17042L117.079 7.20701C116.979 7.30703 116.928 7.40216 116.928 7.48998C116.928 7.5778 117.067 7.70466 117.342 7.8681L117.417 7.71685C117.704 7.71685 117.926 7.8559 118.077 8.13156C118.077 8.42185 118.101 8.61213 118.152 8.70727C118.203 8.80241 118.322 8.93658 118.51 9.11222C118.697 9 118.872 8.94146 119.035 8.94146C119.362 8.94146 119.632 9.07319 119.843 9.33665L120.162 9.75135L120.839 10.3734L120.934 10.8076L121.386 11.3736L121.498 11.8834C121.299 12.1469 121.197 12.3664 121.197 12.5421C121.197 12.6177 121.209 12.6811 121.235 12.7299L122.382 13.8984L122.457 14.3131L122.776 15.1986C122.776 15.2352 122.752 15.3938 122.701 15.6695L122.418 15.8207V16.0085L122.737 16.0451L122.812 16.4794L123 17.8942V17.8991ZM119.992 14.7132C119.992 14.1472 119.634 13.8082 118.921 13.6959L118.809 12.6592L117.887 11.2272L117.736 10.6418L117.492 10.6052L117.154 10.1905L116.307 9.19028L115.536 8.68044L114.764 8.05838L114.406 7.94616L114.18 7.53146H113.803C113.452 7.53146 113.182 7.46315 112.995 7.3241L111.34 6.39955L109.685 6.17268L108.48 5.94581L107.334 5.9824H106.451L105.511 6.24587L104.664 6.35808L103.817 6.86792L103.367 6.75571H103.328L102.859 6.90696L100.77 8.05594L100.281 8.13156C99.9308 8.63409 99.6242 8.92926 99.3589 9.01708L98.8503 9.22443L97.1954 10.8467L96.8936 11.0735C96.4433 11.4126 95.9785 12.0298 95.5015 12.9202L95.3141 13.2788L94.9198 13.3544L94.7324 13.7325L94.5061 14.7132L94.2627 14.9767L94.1508 15.3548L93.3793 15.2426C93.316 15.4572 93.2503 15.5987 93.1822 15.667C93.114 15.7353 92.9899 15.8158 92.8147 15.9036L92.7587 16.0915C93.2236 16.3818 93.4548 16.6623 93.4548 16.9404L93.4183 18.2602L93.7006 20.1824L93.6641 20.6533L94.2652 21.6534C93.9634 21.8413 93.8149 22.0242 93.8149 22.1999C93.8149 22.3121 93.8734 22.4243 93.9926 22.5292C94.1119 22.6365 94.2579 22.6902 94.4355 22.6902C94.4988 22.678 94.5524 22.6682 94.5962 22.6609C94.64 22.6536 94.713 22.6512 94.8128 22.6512L95.5088 23.5001C95.3579 23.727 95.2825 23.8709 95.2825 23.9343L95.4334 24.2368H95.5842L96.3557 24.9711L97.3535 25.5175L98.7456 26.6665L99.8165 26.8739L100.401 27.4764L102.357 28.2107L103.976 28.9084L104.521 28.8718L107.982 29.3816L108.527 29.4182L108.96 29.3816L109.692 29.1938L111.574 29.306L112.382 29.1352L113.81 28.5693L114.336 28.418L114.618 28.6449C115.008 28.5327 115.219 28.4131 115.258 28.2863L115.429 27.6837L117.31 26.0615L118.081 24.7052L118.383 24.1587H118.627L118.853 23.6684L118.741 23.4611L118.853 23.122L118.928 21.5754L119.23 20.8411L119.325 20.2947L119.588 20.1068L119.775 18.9578C119.525 18.5065 119.4 18.1528 119.4 17.9016V17.865L119.476 16.0549L119.439 15.4694C119.817 15.2304 120.004 14.9791 120.004 14.7156L119.992 14.7132Z" fill="#F0EEEE"/>
</svg>
