<svg width="110" height="25" viewBox="0 0 110 25" fill="none" xmlns="http://www.w3.org/2000/svg">
<path d="M28.3832 19.978C27.4452 19.2924 25.4058 16.8112 25.2948 13.4551C25.2948 13.4551 28.6727 13.6248 29.5259 17.0049L29.478 17.1507C29.1058 15.9319 27.8565 14.1929 26.087 13.984C26.087 13.984 27.2471 16.9135 28.8229 18.8658L28.7793 18.979C27.2036 17.314 25.8324 14.5041 25.8324 14.5041C25.717 16.1844 27.4277 18.9311 28.4072 19.8561L28.3854 19.978H28.3832Z" fill="#F8F7F8"/>
<path d="M31.7829 16.6436C31.5871 15.3072 32.462 13.5617 32.6231 13.3049C32.3162 13.4355 31.2976 14.0427 30.7274 15.0656L30.5881 14.8023C31.0473 14.0013 31.7546 13.3484 32.3314 13.0263C31.1844 13.0546 30.1636 13.6009 29.8415 13.8425L29.724 13.7249C30.9319 12.665 32.8646 12.5605 33.4196 12.6476C33.4196 12.6476 31.6959 14.7631 31.8591 16.8895L31.7829 16.6436Z" fill="#F8F7F8"/>
<path d="M26.0061 9.48959C25.7253 9.84654 25.6274 11.2699 25.6274 11.2699C25.5251 11.2351 25.3031 11.2221 25.3031 11.2221C25.3249 9.75077 25.8037 8.7583 25.8037 8.7583C27.016 9.11524 28.8246 10.3558 29.4297 11.5115C29.4297 11.5115 29.36 11.542 29.2686 11.5834C29.2686 11.5834 28.1456 9.99889 26.5154 9.43518C27.1857 10.1512 27.954 12.1405 27.954 12.1405C27.954 12.1405 27.8866 12.0861 27.7212 11.9904C27.7212 11.9904 26.5154 9.62454 26.0061 9.49177V9.48959Z" fill="#F8F7F8"/>
<path d="M31.9639 11.0653C32.0314 10.6322 33.0478 9.62015 33.2458 9.5418C32.4841 9.62015 31.0977 10.1577 31.0977 10.1577L31.0084 10.0424C31.0084 10.0424 32.3034 9.23492 34.1121 9.01074C34.0555 10.2927 33.7268 10.9391 33.7268 10.9391C33.6485 10.9282 33.5701 10.9239 33.4548 10.9282C33.4548 10.9282 33.7051 10.21 33.7029 9.6158C33.3394 9.73115 32.4906 10.3449 32.0988 11.0327L31.9639 11.0632V11.0653Z" fill="#F8F7F8"/>
<path d="M28.3704 8.02923C28.0526 7.16517 27.7 6.49482 27.5019 6.37947C27.3148 6.42517 26.8991 6.84741 26.7815 7.16517L26.5682 7.089C27.0057 6.22059 27.4671 5.85059 27.4671 5.85059C28.6337 6.35553 29.8003 7.8377 30.0049 8.24035L29.846 8.32306C29.3019 7.58306 28.2985 6.69506 28.0352 6.54053C28.3464 6.99976 28.6685 8.22512 28.6685 8.22512C28.5662 8.14894 28.3704 8.02923 28.3704 8.02923Z" fill="#F8F7F8"/>
<path d="M32.1639 7.59369C32.1639 7.59369 32.6601 6.31175 33.3066 5.82422C32.5013 6.03316 31.4936 6.57945 31.4936 6.57945C31.4587 6.52504 31.3978 6.45322 31.3434 6.39445C32.8604 5.50863 34.0531 5.41504 34.0531 5.41504C34.1554 5.8068 34.0531 6.7231 33.6896 7.29986C33.6896 7.29986 33.4089 7.33904 33.2979 7.35427C33.2979 7.35427 33.8071 6.60339 33.7919 5.81333C33.0802 6.08974 32.5317 7.48051 32.5317 7.48051C32.4403 7.5001 32.2597 7.55886 32.1639 7.59151V7.59369Z" fill="#F8F7F8"/>
<path d="M29.906 3.68032C29.7253 3.74126 29.0615 4.17655 28.7263 4.5139L28.5087 4.36808C29.3575 3.45179 30.4131 2.97949 30.4131 2.97949C31.0181 3.71296 31.2793 4.55961 31.2793 4.55961L31.0682 4.65102C31.0682 4.65102 30.6438 3.70643 30.3978 3.64332C30.1519 4.26579 30.091 5.18208 30.091 5.18208L29.845 5.33661L29.6644 5.16467C29.7558 4.13737 29.906 3.68032 29.906 3.68032Z" fill="#F8F7F8"/>
<path d="M31.9574 2.42693C32.0118 2.5684 32.31 3.18434 32.3861 3.27575C32.532 3.26487 32.656 3.23222 32.9368 3.36716C33.174 3.48034 33.3503 3.69581 33.3917 3.77198C33.7356 3.7524 34.0337 3.74151 34.0729 3.73716L34.0881 3.5761C34.0881 3.5761 33.3634 3.69798 33.3155 3.31275C33.3155 3.31275 33.2088 3.14516 34.0337 2.06998V1.95898L33.9619 1.9851C33.8074 2.20928 33.2393 3.07769 32.8846 3.05375C32.5603 3.03416 32.2273 2.75993 32.1881 2.3464L31.9552 2.42693H31.9574Z" fill="#F8F7F8"/>
<path d="M43.0597 19.6819C44.0305 18.7656 45.7238 16.0472 45.6106 14.3844C45.6106 14.3844 44.2525 17.1659 42.6941 18.8135L42.6506 18.7003C44.2089 16.7676 45.3581 13.8685 45.3581 13.8685C43.606 14.0753 42.3698 15.7969 42.002 17.0027L41.9541 16.859C42.7964 13.5138 46.1416 13.3462 46.1416 13.3462C46.0306 16.6675 44.013 19.1225 43.0837 19.8038L43.0619 19.6819H43.0597Z" fill="#F8F7F8"/>
<path d="M39.5681 16.5238C39.7596 15.2201 38.9043 13.5159 38.7476 13.2656C39.0458 13.394 40.0404 13.986 40.5976 14.985L40.7347 14.7282C40.2863 13.9469 39.5964 13.3091 39.0327 12.9957C40.1514 13.024 41.1482 13.5573 41.4638 13.7923L41.5792 13.677C40.3995 12.6431 38.5125 12.5387 37.9706 12.6257C37.9706 12.6257 39.653 14.6912 39.4941 16.7654L39.5681 16.526V16.5238Z" fill="#F8F7F8"/>
<path d="M45.5592 9.42621C45.8683 9.81797 45.9727 11.3741 45.9727 11.3741C46.0859 11.3371 46.3275 11.3219 46.3275 11.3219C46.3036 9.7135 45.7812 8.62744 45.7812 8.62744C44.4557 9.01703 42.4773 10.3751 41.8157 11.6397C41.8157 11.6397 41.8918 11.6723 41.992 11.718C41.992 11.718 43.2217 9.98556 45.0042 9.36744C44.2707 10.1488 43.4306 12.3253 43.4306 12.3253C43.4306 12.3253 43.5046 12.2643 43.6853 12.1599C43.6853 12.1599 45.0042 9.57203 45.5614 9.42621H45.5592Z" fill="#F8F7F8"/>
<path d="M39.6233 11.1893C39.5428 10.68 38.3479 9.49167 38.115 9.40026C39.0096 9.49167 40.6398 10.1228 40.6398 10.1228L40.7464 9.98573C40.7464 9.98573 39.225 9.03679 37.0986 8.77344C37.1661 10.2817 37.5513 11.0413 37.5513 11.0413C37.6428 11.0283 37.7342 11.0217 37.8691 11.0283C37.8691 11.0283 37.5753 10.1838 37.5775 9.48514C38.004 9.62008 39.003 10.3427 39.4623 11.1523L39.6212 11.1893H39.6233Z" fill="#F8F7F8"/>
<path d="M35.6983 0C28.7989 0 23.2075 5.59135 23.2075 12.4908C23.2075 19.3902 28.7989 24.9815 35.6983 24.9815C42.5977 24.9815 48.1891 19.3902 48.1891 12.4908C48.1891 5.59135 42.5977 0 35.6983 0ZM33.1975 20.6569C33.2715 20.8136 33.3521 20.9855 33.4391 21.1771C33.4195 21.1879 33.3999 21.1988 33.3803 21.2075C33.2628 21.2685 33.1671 21.3229 33.0713 21.4469C32.2812 20.8332 31.6479 20.0431 31.3149 19.2552C31.1843 18.9484 31.1212 18.5044 31.045 17.9907C30.8556 16.687 30.5988 14.9219 28.9882 13.616C29.5106 13.1698 31.1451 11.9532 33.4913 11.9532C33.8526 11.9532 34.2205 11.9815 34.5883 12.0402C33.8352 13.0088 32.4967 14.763 32.4706 16.8372C32.4423 19.0485 32.6948 19.5861 33.1997 20.6569H33.1975ZM34.1856 11.3982C33.9789 11.3721 33.746 11.359 33.4957 11.359C32.6991 11.359 31.8089 11.4918 31.2735 11.6811C31.0254 11.2741 30.4465 10.3622 29.9611 9.87683C30.9993 9.1303 33.4979 8.38377 34.6928 8.38377C34.7058 8.38377 34.7189 8.38377 34.7298 8.38377C34.7298 8.44036 34.7298 8.49912 34.7319 8.55788C34.7428 9.21082 34.7559 10.0945 34.1856 11.396V11.3982ZM34.116 7.87665C33.2062 7.95935 32.1724 8.22488 31.7023 8.37288C31.3606 7.78959 30.7272 6.845 30.2397 6.37924C31.2256 5.68059 33.0604 4.77082 34.7167 4.74035C34.8995 5.80465 34.6666 7.03 34.116 7.87447V7.87665ZM32.1963 4.16141C32.4728 3.96988 32.8993 4.05041 32.9995 4.51618C32.8014 4.56188 32.525 4.63371 32.3422 4.70118C32.2899 4.45741 32.2464 4.27894 32.1985 4.16141H32.1963ZM32.7274 1.69982C32.7274 1.71071 32.7274 1.72159 32.7274 1.73465C32.7274 1.86088 32.7361 2.02847 32.7818 2.17865C32.8232 2.32229 32.9276 2.48335 33.1235 2.48335H33.1322H33.1409C33.487 2.47465 33.6393 2.21347 33.6328 2.02629C33.6306 1.89571 33.5566 1.64541 33.5131 1.50177C33.7612 1.44082 34.3685 1.29718 34.6601 1.23188C34.671 1.55618 34.6862 2.25918 34.6906 2.51818C34.5535 2.53124 34.3097 2.56171 34.1356 2.65094C34.0268 2.70535 33.8331 2.82724 33.8331 3.07753C33.8331 3.08841 33.8331 3.09929 33.8331 3.11453C33.8418 3.31477 34.0333 3.39965 34.1791 3.38877C34.3641 3.38877 34.5796 3.31694 34.7232 3.26253L34.6623 4.13965C34.4403 4.14835 33.8831 4.181 33.4478 4.27459C33.3042 3.85671 32.8841 3.57159 32.451 3.56941C32.353 3.56941 32.2529 3.58465 32.155 3.6173C31.946 3.12324 31.5129 2.38106 31.341 2.09377L32.7296 1.702L32.7274 1.69982ZM30.6162 2.29618C31.3236 3.26471 31.7893 4.16141 31.8982 4.76212C31.2039 5.05159 30.2484 5.59353 29.7957 5.95265C29.2559 5.46512 28.3157 4.83612 27.5822 4.47047C28.3723 3.72177 29.3212 2.90994 30.6162 2.29835V2.29618ZM27.1404 4.94277C29.4627 5.92871 30.5139 7.66553 31.082 8.60794C30.4508 8.87783 29.8283 9.22171 29.5106 9.45241C28.8968 8.89088 27.3015 7.66335 25.5516 7.17147C25.9107 6.37706 26.7748 5.36282 27.1404 4.94059V4.94277ZM25.2447 7.7983C26.8335 8.17918 29.4279 9.63959 30.6968 11.8879C29.9829 12.1665 29.1166 12.6279 28.5225 13.2025C27.7085 12.4777 26.0805 11.7595 24.435 11.7595C24.4677 11.0869 24.6135 9.04106 25.2447 7.80047V7.7983ZM34.1225 23.2404L33.7873 23.236C28.4332 22.4786 24.533 17.9624 24.4438 12.4559C24.5548 12.4472 24.6679 12.4429 24.7789 12.4429C26.8596 12.4429 28.4659 14.0078 28.9077 14.4866C29.9219 15.5857 30.0982 16.5999 30.3921 18.2802C30.4291 18.4869 30.4661 18.7046 30.5074 18.9309C30.7991 20.5328 32.4902 21.9171 33.1126 22.1978C33.1409 22.2109 33.1714 22.2174 33.1997 22.2174C33.2737 22.2174 33.3455 22.1782 33.3847 22.1108C33.5849 21.7647 33.8352 21.5971 34.153 21.5971C34.6057 21.5971 34.9757 21.9584 34.9757 22.4002C34.9757 22.8421 34.5752 23.2404 34.1203 23.2404H34.1225ZM46.9659 11.7573C45.3205 11.7573 43.6925 12.4755 42.8785 13.2003C42.2843 12.6279 41.418 12.1665 40.7042 11.8857C41.973 9.63741 44.5674 8.177 46.1562 7.79612C46.7874 9.03671 46.9354 11.0826 46.9659 11.7551V11.7573ZM38.9303 16.8394C38.9042 14.7674 37.5657 13.0109 36.8126 12.0424C37.1805 11.9858 37.5461 11.9554 37.9096 11.9554C40.2515 11.9554 41.8903 13.172 42.4127 13.6182C40.8043 14.9241 40.5475 16.6892 40.3581 17.9929C40.2841 18.5065 40.2188 18.9484 40.0882 19.2574C39.7552 20.0475 39.1197 20.8354 38.3318 21.4491C38.2361 21.3251 38.1403 21.2685 38.0228 21.2097C38.0032 21.1988 37.9836 21.1901 37.964 21.1792C38.0511 20.9877 38.1316 20.8158 38.2056 20.6591C38.7083 19.5882 38.9608 19.0507 38.9347 16.8394H38.9303ZM36.6668 8.56224C36.6668 8.50347 36.6668 8.44471 36.669 8.38812C36.6821 8.38812 36.6951 8.38812 36.706 8.38812C37.9009 8.38812 40.3995 9.13465 41.4376 9.88118C40.9523 10.3665 40.3733 11.2785 40.1252 11.6855C39.5898 11.4939 38.6996 11.3634 37.9031 11.3634C37.6506 11.3634 37.4199 11.3764 37.2131 11.4025C36.6429 10.1032 36.6559 9.21735 36.6668 8.56441V8.56224ZM45.8472 7.17365C44.0973 7.66553 42.5019 8.89306 41.8882 9.45459C41.5704 9.22388 40.9479 8.88 40.3168 8.61012C40.8848 7.66771 41.9361 5.92871 44.2583 4.94494C44.624 5.36718 45.4881 6.38141 45.8472 7.17583V7.17365ZM43.8165 4.47047C43.0831 4.8383 42.1428 5.4673 41.6031 5.95265C41.1503 5.59353 40.1949 5.05159 39.5006 4.76212C39.6094 4.16359 40.0752 3.26471 40.7825 2.29618C42.0753 2.90777 43.0265 3.71959 43.8165 4.4683V4.47047ZM37.2653 2.65312C37.0934 2.56606 36.8475 2.53341 36.7103 2.52253C36.7147 2.26135 36.7278 1.55835 36.7408 1.23406C37.0325 1.29935 37.6375 1.44518 37.8878 1.50394C37.8421 1.64759 37.7703 1.89788 37.7681 2.02847C37.7594 2.21782 37.9139 2.47682 38.26 2.48553H38.2752C38.4689 2.48553 38.5756 2.32229 38.6169 2.17865C38.6626 2.03065 38.6713 1.86088 38.6713 1.73465C38.6713 1.72159 38.6713 1.71071 38.6713 1.69982L40.0599 2.09159C39.888 2.37888 39.4549 3.12106 39.2459 3.61512C39.148 3.58247 39.0479 3.56724 38.9499 3.56724C38.5146 3.56724 38.0968 3.85453 37.9531 4.27241C37.5178 4.17882 36.9585 4.14618 36.7386 4.13747L36.6777 3.26035C36.8213 3.31694 37.0346 3.38441 37.2218 3.38659C37.3676 3.39747 37.5592 3.31259 37.5679 3.11018C37.5679 3.09712 37.5679 3.08841 37.5679 3.07535C37.5679 2.82506 37.3763 2.70318 37.2653 2.64877V2.65312ZM39.2024 4.16359C39.1545 4.28112 39.111 4.45959 39.0588 4.70335C38.8738 4.63806 38.5973 4.56406 38.4015 4.51835C38.4994 4.05041 38.9282 3.97206 39.2046 4.16359H39.2024ZM36.682 4.74471C38.3383 4.77518 40.1731 5.68277 41.1591 6.38359C40.6715 6.84935 40.036 7.79612 39.6965 8.37724C39.2263 8.22706 38.1925 7.96371 37.2828 7.881C36.7321 7.03653 36.4971 5.809 36.682 4.74688V4.74471ZM37.6114 23.2382L37.2784 23.2425C36.8213 23.2425 36.4209 22.8508 36.4209 22.4024C36.4209 21.9541 36.7887 21.5993 37.2436 21.5993C37.5613 21.5993 37.8116 21.7669 38.0119 22.1129C38.0511 22.1804 38.1229 22.2196 38.1969 22.2196C38.2273 22.2196 38.2556 22.2131 38.2839 22.2C38.9086 21.9192 40.5997 20.535 40.8892 18.9331C40.9305 18.7068 40.9675 18.4891 41.0045 18.2824C41.2983 16.6021 41.4746 15.5879 42.4889 14.4888C42.9329 14.0099 44.5391 12.4451 46.6176 12.4451C46.7286 12.4451 46.8418 12.4494 46.9528 12.4581C46.8636 17.9668 42.9633 22.4808 37.6092 23.2382H37.6114Z" fill="#F8F7F8"/>
<path d="M43.0988 8.00715C43.4405 7.07779 43.8214 6.35738 44.0325 6.23332C44.2328 6.28338 44.6811 6.73609 44.8073 7.07779L45.0381 6.99509C44.5679 6.06138 44.0717 5.66309 44.0717 5.66309C42.8159 6.2072 41.5622 7.80038 41.3424 8.23132L41.5144 8.32056C42.0998 7.52614 43.1772 6.5685 43.4601 6.40309C43.1249 6.89714 42.7789 8.21609 42.7789 8.21609C42.8877 8.13338 43.0988 8.00715 43.0988 8.00715Z" fill="#F8F7F8"/>
<path d="M39.2774 7.58303C39.2774 7.58303 38.7638 6.25974 38.0978 5.75697C38.927 5.97244 39.9674 6.53615 39.9674 6.53615C40.0044 6.47956 40.0675 6.40556 40.1219 6.3468C38.5548 5.4305 37.3251 5.33691 37.3251 5.33691C37.2207 5.74174 37.3251 6.68633 37.6995 7.28268C37.6995 7.28268 37.989 7.32186 38.1043 7.33709C38.1043 7.33709 37.5798 6.56227 37.595 5.74609C38.3307 6.03121 38.8966 7.46768 38.8966 7.46768C38.9923 7.48727 39.1773 7.54821 39.2774 7.58303Z" fill="#F8F7F8"/>
<path d="M41.481 3.72823C41.6529 3.787 42.2863 4.20271 42.6062 4.52482L42.813 4.38553C42.0033 3.51059 40.9956 3.06006 40.9956 3.06006C40.4189 3.76088 40.1686 4.57053 40.1686 4.57053L40.371 4.65759C40.371 4.65759 40.7758 3.75653 41.0109 3.69559C41.2459 4.28976 41.3047 5.16471 41.3047 5.16471L41.5398 5.31271L41.7117 5.14729C41.6246 4.16788 41.481 3.73041 41.481 3.73041V3.72823Z" fill="#F8F7F8"/>
<path d="M39.4109 2.44628C39.3565 2.58557 39.0627 3.1928 38.9865 3.28422C38.8429 3.27333 38.7188 3.24069 38.4424 3.37345C38.2073 3.48445 38.0332 3.69775 37.994 3.77175C37.6545 3.75216 37.3607 3.74128 37.3215 3.73692L37.3063 3.57804C37.3063 3.57804 38.0202 3.69992 38.068 3.31904C38.068 3.31904 38.1725 3.15363 37.3585 2.09369V1.98486L37.4282 2.01098C37.5805 2.23298 38.142 3.08616 38.4925 3.06439C38.8102 3.0448 39.141 2.77492 39.1802 2.36792L39.4087 2.44845L39.4109 2.44628Z" fill="#F8F7F8"/>
<path d="M23.4972 1.73902L23.1947 1.97407L22.7746 2.69666L21.4295 3.21902L20.8071 3.62166C20.6721 3.68913 20.5372 3.72178 20.4044 3.72178H20.3718L19.3967 3.55419L17.1267 3.48672L15.5465 3.31913L14.0339 3.41925L13.4441 3.31913L13.209 3.35178L13.024 4.14184L13.1089 4.5619L13.1415 5.09949V5.25184L12.9565 6.0419L12.9892 6.64696L12.9217 7.16931L13.0218 7.55672C12.7519 7.57849 12.5822 7.62419 12.5082 7.69166C12.4342 7.75913 12.3928 7.92237 12.3819 8.17919C12.7519 8.23578 12.9544 8.3359 12.987 8.48172L12.9195 9.69184V10.4819C12.9195 10.8193 12.7019 11.1827 12.2644 11.5745C12.321 11.6746 12.3711 11.7573 12.4168 11.8183C12.4603 11.8792 12.5321 11.9271 12.6279 11.9619C12.7236 11.9945 12.8216 12.0185 12.9217 12.0294L13.0218 12.2318C12.876 12.321 12.7781 12.4103 12.728 12.5017C12.6779 12.5909 12.6409 12.7433 12.6192 12.9565L13.0218 13.4114V14.9589C13.0218 15.1374 12.9435 15.3115 12.7868 15.4813L12.9544 15.8839L12.8869 16.3388L13.0218 16.9613L12.9544 17.4488L12.987 17.8514L13.0197 18.5414C12.5931 18.7198 12.3798 18.9723 12.3798 19.2988C12.3798 19.5687 12.5822 19.8081 12.9848 20.0214L13.2373 22.8464L12.9848 23.0488L12.6823 23.2012L11.7899 23.9586L11.47 23.9913H11.2349L11.0325 24.2263C10.8976 24.1371 10.7909 24.0914 10.7126 24.0914L10.5102 24.1588L10.3078 23.704C10.3295 23.6365 10.3448 23.5843 10.3491 23.5451C10.3556 23.5059 10.3622 23.4689 10.3752 23.4363L10.5102 22.6788L10.3752 21.7865L10.5102 20.4741L10.6103 18.5392L10.7779 17.0918V16.7044L11.0978 16.3018L10.6778 14.7543L10.8454 13.677L10.7452 12.2644L10.6778 11.3068L10.6451 11.2741C10.6451 11.0957 10.7518 10.7017 10.9651 10.0967L10.8475 9.72666C10.6016 9.11072 10.4775 8.68413 10.4775 8.44908V8.41643L10.5102 7.9289L10.3078 7.07137L10.3404 6.58384L10.1228 5.35631L10.0553 4.93625L10.5777 3.91113C10.8127 3.77619 10.9302 3.64778 10.9302 3.52372C10.9302 3.41272 10.9194 3.32131 10.8976 3.25384L9.95518 3.06884H9.65265L9.30006 3.03619L8.54265 2.73366L7.03 2.8686L4.72512 2.63355L2.23524 2.76849L1.83259 2.70102C1.55182 3.02749 1.29935 3.18855 1.07518 3.18855H0.975059L0.48753 3.12107L0 3.03619C0.0108824 2.69884 0.0522353 2.4616 0.126235 2.32231C0.198059 2.18302 0.330824 2.03284 0.522353 1.87613L1.76729 0.901074C2.11553 0.744369 2.60306 0.666016 3.22988 0.666016H3.68477C3.81971 0.99031 4.00471 1.15355 4.23977 1.15355C4.47482 1.15355 4.7273 1.02513 5.02983 0.766133L5.78724 0.833604L7.26724 1.32113L8.51218 1.25366L9.48724 1.48872L11.4374 1.58884L12.2622 2.04372L12.6497 2.07637L12.6823 1.94143L13.1024 1.97407C13.8097 2.03066 14.2494 2.07419 14.4235 2.10902C14.5976 2.14166 14.7739 2.23743 14.9524 2.39413L15.54 2.52907L15.8425 2.31143L16.3975 2.27878L17.1201 1.97625L18.3651 2.0089L19.1899 1.84131C19.5382 1.95449 19.8233 2.0089 20.0475 2.0089C21.1357 2.0089 22.1826 1.75643 23.1925 1.25149L23.3949 1.3516L23.495 1.73902H23.4972Z" fill="#F8F7F8"/>
<path d="M77.4574 21.954C77.4574 22.324 77.2724 22.7223 76.9024 23.1489C76.5999 23.4753 76.3583 23.6364 76.1799 23.6364C76.1581 23.6364 76.0797 23.6146 75.9448 23.5689L75.6423 23.7713C75.3963 23.9607 75.1983 24.0565 75.0546 24.0565L74.7847 24.0238L74.8174 23.6038L74.9523 22.6439L74.9197 21.954L75.2222 19.919L75.0546 19.0266L74.9545 17.0591L74.8544 16.3692L74.887 14.6868L74.8196 13.5768L74.887 12.9216L74.6346 10.7517L74.8522 10.3142L74.5671 10.1967V9.79405L74.332 8.78417L74.3647 7.82652L74.1971 7.42388L73.777 7.52399L73.6421 7.72641L73.7096 8.21394L72.8194 9.55899L72.7846 9.92899L72.4994 10.1989L72.3319 10.6538L72.0968 11.0063L71.9967 11.6114L71.5418 12.6213L71.4743 12.9913C71.1043 13.2938 70.8519 13.5681 70.7169 13.8162L70.1619 15.0611L68.6493 17.6511L67.5719 19.6535L67.302 20.0561L66.3096 20.9811C66.1855 21.0812 66.1246 21.177 66.1246 21.2662C66.1463 21.288 66.1637 21.3119 66.1746 21.3337C66.2421 21.6036 66.2747 21.7777 66.2747 21.8561L66.2421 22.0236C66.0288 22.0585 65.8743 22.1216 65.7807 22.2174C65.6871 22.3131 65.5979 22.4676 65.5195 22.6788C65.3737 23.0705 65.254 23.3426 65.1582 23.4949C65.0624 23.6473 64.9406 23.7605 64.7882 23.8388C64.6359 23.9172 64.4095 23.9912 64.107 24.0565C63.8153 23.73 63.6477 23.5189 63.602 23.4166C63.5563 23.3165 63.5171 23.1467 63.4845 22.9116L63.3496 22.7767C63.3496 22.5416 63.2081 22.3566 62.9295 22.2217L62.7946 22.3566L62.5421 21.9192L62.1394 20.8092L61.7869 20.3391L61.4169 19.2965L60.9968 18.6741C61.1426 18.4042 61.2144 18.1517 61.2144 17.9166C61.2144 17.7382 61.1753 17.6141 61.0969 17.5466L60.5593 17.0918L58.4569 12.9216L57.9345 11.8291H57.9671L58.0673 11.3742L57.7974 10.8192L57.6973 10.3142L57.3447 10.4818L57.1423 10.1292C56.794 9.53505 56.5764 9.12588 56.4872 8.9017C56.3979 8.67752 56.2847 8.34017 56.1498 7.89182C55.8581 7.89182 55.6731 7.80258 55.5948 7.62194L55.3423 8.17694H55.0724L55.005 8.31188C55.1617 8.54694 55.24 8.77764 55.24 9.00182L55.1399 10.2794C55.129 10.4818 55.1138 10.6407 55.0986 10.7582C55.0811 10.8758 55.0529 10.965 55.0137 11.0281C54.9745 11.0891 54.894 11.2044 54.7699 11.372L55.1726 12.1969L55.1051 12.6169L55.0724 13.8118L54.9723 14.5344L55.0724 18.1669L54.87 18.7045C55.0267 19.0288 55.1051 19.3553 55.1051 19.6796V20.0169C54.8134 20.0496 54.6219 20.1236 54.5327 20.2346C54.4434 20.3478 54.3803 20.5719 54.3477 20.9071L54.9701 21.1248L55.0028 21.4948V21.8822C55.0028 22.2195 54.9571 22.4263 54.8679 22.5046L53.5903 23.3622L52.9678 23.8671L52.7327 23.9172L52.3801 23.8671L52.3475 23.6647L52.28 23.3622L52.6 22.5721V20.9398L52.8699 18.9222L52.8372 17.8448L52.8046 17.4748L52.872 16.9525L52.8394 16.5324C53.007 16.4083 53.1093 16.2233 53.1419 15.9774L53.3269 15.8773C53.2943 15.664 53.2529 15.5291 53.2094 15.4746L53.007 15.0546C53.007 14.998 53.0048 14.9545 52.9983 14.9196C52.9917 14.887 52.983 14.8522 52.9721 14.8195C52.9721 14.6519 53.0679 14.4669 53.2573 14.2645C53.0657 13.9402 52.9721 13.6529 52.9721 13.407V13.3069L53.0723 11.2392L52.9721 9.43929L53.0048 9.06929L53.5598 9.23688C53.6708 9.09105 53.7274 8.96699 53.7274 8.86688V8.74935L52.97 8.68188L52.9025 7.85699L53.4575 7.82435L53.525 7.48699C53.525 7.28458 53.3617 7.12352 53.0374 6.99946L52.8699 6.07446H53.0374L53.0701 5.85682L52.8002 4.20923L52.8329 3.41917L52.5303 2.76405C52.5303 2.53988 52.7327 2.33311 53.1354 2.14158L53.4553 2.20905L53.6577 1.77158L54.0103 1.61923L54.7677 1.04682C54.9353 0.922758 55.0811 0.861816 55.2052 0.861816L55.5578 0.946699C55.5687 1.15999 55.6057 1.31452 55.6666 1.40811C55.7276 1.50388 55.8603 1.60182 56.0627 1.70193C56.0845 1.84776 56.1193 1.97835 56.1629 2.09805C56.2086 2.21558 56.2826 2.35923 56.3892 2.52682C56.4959 2.6944 56.6439 2.93599 56.8354 3.24941L56.683 3.6194L56.5154 4.17441L56.5829 4.37682L57.1053 4.62929L57.5079 5.89164L57.1706 6.41399L57.373 6.51411L57.5079 6.8667C57.8431 6.88846 58.1239 7.09741 58.348 7.48917L58.8856 8.68405L59.5081 10.4492C59.2164 10.7082 59.0706 10.9149 59.0706 11.0716L59.2382 11.4743L59.6082 11.5069C59.7997 11.5287 59.9216 11.5679 59.9782 11.6245C60.0348 11.6811 60.0957 11.8029 60.1632 11.9945L59.8607 12.482C59.9847 12.6387 60.0957 12.7171 60.1959 12.7171H60.3983L60.6159 13.0196C61.0534 13.8379 61.271 14.332 61.271 14.4996L61.1361 15.0219L61.0186 15.4093L61.3385 15.5769L61.6759 15.6444L62.0633 16.1668L62.7184 16.8567L62.886 17.5118L63.256 17.8492L63.7109 18.9592L64.0983 19.3618L64.6359 20.4392L64.921 20.6742L65.3236 20.2868L66.5337 18.9243L67.1562 17.847L67.7112 16.8219L68.5361 15.4093L70.0836 11.7942L70.706 10.8518L70.8736 9.79188L71.7311 7.85699L71.8661 7.33464L72.0837 7.26717L72.2862 7.09958V6.96464L72.556 6.8297L72.5212 6.54458L72.2187 6.40964C72.3079 5.93952 72.4211 5.66311 72.556 5.58476L72.876 5.44982L73.1785 5.19735C73.0436 4.96229 72.876 4.70982 72.6736 4.43993C72.852 4.19399 72.9434 3.99158 72.9434 3.83488C72.9434 3.75652 72.9326 3.69558 72.9086 3.64988L73.2112 3.31252L73.7335 2.52246L74.726 1.69758C75.1526 1.32758 75.4094 1.14258 75.4986 1.14258L75.9013 1.2427L75.8012 2.38535L75.9361 2.52029L76.256 2.48764C76.5694 2.48764 76.7262 2.57688 76.7262 2.75752L76.6913 3.41264L76.5564 3.96764L76.354 3.90017L76.2865 4.2027L76.5216 4.82517L76.589 8.40764V8.57523C76.589 8.7537 76.5433 8.90605 76.4541 9.03011L75.9992 9.65258C75.9535 9.69829 75.9317 9.83105 75.9317 10.0552C76.021 10.1902 76.1102 10.2772 76.2016 10.3164C76.2909 10.3556 76.4301 10.3752 76.6217 10.3752L76.6543 10.9976L76.5869 13.7726L76.8567 14.9828L77.0091 17.0852L77.144 18.4978C77.144 18.6893 77.0983 18.9178 77.0091 19.1877C77.1549 19.3662 77.2442 19.5185 77.279 19.6426C77.3116 19.7666 77.3464 20.0866 77.3791 20.6002L77.4466 21.9126V21.9453L77.4574 21.954Z" fill="#F8F7F8"/>
<path d="M110.003 12.4012C110.003 12.4796 109.992 12.5405 109.968 12.5862L109.666 13.5787L109.699 14.4362L109.446 14.8911C109.4 14.8694 109.322 14.8585 109.211 14.8585C109.144 14.8585 109.083 14.9151 109.026 15.0261C108.969 15.1392 108.941 15.2677 108.941 15.4135C108.941 15.4592 108.952 15.4918 108.974 15.5136C109.198 15.8836 109.309 16.1252 109.309 16.2362C109.309 16.3254 109.287 16.4038 109.241 16.4712C109.006 16.6954 108.843 16.9479 108.754 17.2287L108.384 17.3962L108.484 17.5138L108.384 17.6139L108.654 17.8163L108.621 17.9164L108.319 18.2015L107.931 18.8414L107.661 19.1265C107.505 18.9698 107.376 18.8915 107.274 18.8915C107.072 18.8915 106.971 19.0047 106.971 19.2288C106.971 19.3181 107.061 19.4813 107.241 19.7164C106.893 20.2997 106.323 20.8372 105.526 21.3313C104.697 21.858 103.839 22.3347 102.954 22.7612C102.068 23.1878 101.384 23.4447 100.901 23.5339L100.564 23.6014C99.7237 23.7581 99.1949 23.8364 98.9838 23.8364H98.9163L98.2612 23.8038L97.8411 23.8712L97.2186 23.5012L96.7485 23.7037C96.5352 23.8495 96.385 23.9213 96.2936 23.9213H96.1587C96.0695 23.708 95.9802 23.5535 95.8888 23.4599C95.7996 23.3641 95.6581 23.2771 95.4687 23.1987C94.7723 23.5578 94.2347 23.7363 93.8538 23.7363C93.7189 23.7363 93.5905 23.6906 93.4664 23.6014C93.2205 23.6014 93.0855 23.5905 93.0638 23.5665L91.8863 23.2314L90.8938 23.264L90.5064 22.9441L89.9514 23.0115L89.4813 22.9441L88.7913 22.7417L86.6562 22.2541L86.0686 21.784L85.3112 21.4989L84.5211 20.674C84.3405 20.5391 84.0771 20.4716 83.731 20.4716L83.2762 19.9492C83.3654 19.736 83.4111 19.5727 83.4111 19.4617C83.4111 19.1135 82.9954 18.8741 82.1662 18.7391V18.6042L81.9637 18.5367L81.7613 18.1667L81.5937 17.9817V17.6117L81.2412 16.6018L81.1737 16.2645L80.9038 14.7845L81.0039 13.3371L81.1389 12.9171L81.239 11.9921L82.0639 9.82212L82.164 9.43471C82.399 8.85142 82.769 8.42048 83.274 8.13971V7.92206L84.1315 6.96442C84.2665 7.01012 84.3448 7.03189 84.3666 7.03189C84.5342 7.03189 84.6517 6.96442 84.7192 6.82947L84.9542 6.10689L85.2742 5.68683C85.3982 5.44089 85.5658 5.25589 85.7791 5.13183L86.3015 4.89677L86.7563 4.34177L87.8163 3.61918C88.5236 3.15994 88.9263 2.92924 89.0264 2.92924L89.2963 3.02936L89.7512 2.49177L90.0537 2.4243L93.2335 1.17936C93.412 1.09012 93.6318 1.04442 93.8886 1.04442C94.1237 1.04442 94.411 1.11189 94.7462 1.24683L95.016 1.14671L95.1162 0.826768L95.6037 0.894239L95.8736 0.944297H95.9585L96.7833 0.72665L98.0958 0.794121L98.7356 0.65918L99.2906 0.72665L99.813 0.694003L100.403 0.896415L101.395 1.08142L102.118 1.48406L104.186 2.24147L104.388 2.42647L104.775 2.66153V2.82912L104.708 2.86177C104.619 2.951 104.573 3.03589 104.573 3.11424C104.573 3.19259 104.697 3.30577 104.943 3.45159L105.01 3.31665C105.267 3.31665 105.465 3.44071 105.6 3.68665C105.6 3.94565 105.622 4.11542 105.668 4.2003C105.713 4.28518 105.82 4.40489 105.988 4.56159C106.155 4.46147 106.312 4.40924 106.458 4.40924C106.749 4.40924 106.991 4.52677 107.18 4.76183L107.465 5.13183L108.071 5.68683L108.155 6.07424L108.56 6.57918L108.66 7.03406C108.482 7.26912 108.39 7.465 108.39 7.62171C108.39 7.68918 108.401 7.74577 108.425 7.7893L109.45 8.83183L109.518 9.20183L109.803 9.99189C109.803 10.0245 109.781 10.166 109.736 10.4119L109.483 10.5469V10.7145L109.768 10.7471L109.836 11.1345L110.003 12.3969V12.4012ZM107.313 9.55877C107.313 9.05383 106.993 8.7513 106.355 8.65118L106.255 7.72618L105.43 6.44859L105.296 5.92624L105.078 5.89359L104.775 5.52359L104.018 4.63124L103.328 4.17636L102.638 3.62136L102.318 3.52124L102.116 3.15124H101.778C101.465 3.15124 101.223 3.0903 101.056 2.96624L99.5758 2.14136L98.0958 1.93894L97.0184 1.73653L95.9933 1.76918H95.2032L94.3631 2.00424L93.6057 2.10436L92.8483 2.55924L92.4456 2.45912H92.4108L91.9908 2.59406L90.1233 3.61918L89.6859 3.68665C89.3725 4.135 89.0982 4.39836 88.861 4.47671L88.4061 4.66171L86.9261 6.10906L86.6562 6.31147C86.2536 6.614 85.8379 7.16465 85.4113 7.95906L85.2437 8.27901L84.8911 8.34648L84.7235 8.68383L84.5211 9.55877L84.3035 9.79383L84.2033 10.1312L83.5134 10.0311C83.4568 10.2226 83.398 10.3488 83.3371 10.4098C83.2762 10.4707 83.1652 10.5425 83.0085 10.6209L82.9584 10.7885C83.3741 11.0475 83.5809 11.2978 83.5809 11.5459L83.5482 12.7234L83.8007 14.4384L83.768 14.8585L84.3056 15.7508C84.0358 15.9184 83.903 16.0817 83.903 16.2384C83.903 16.3385 83.9552 16.4386 84.0619 16.5322C84.1685 16.6279 84.2991 16.6758 84.458 16.6758C84.5146 16.6649 84.5625 16.6562 84.6016 16.6497C84.6408 16.6432 84.7061 16.641 84.7953 16.641L85.4178 17.3984C85.2829 17.6008 85.2154 17.7292 85.2154 17.7858L85.3503 18.0557H85.4853L86.1752 18.7108L87.0676 19.1984L88.3125 20.2235L89.2702 20.4085L89.7925 20.9461L91.5424 21.6012L92.9898 22.2237L93.4773 22.191L96.5722 22.6459L97.0598 22.6785L97.4472 22.6459L98.1023 22.4783L99.7847 22.5784L100.507 22.4261L101.785 21.9211L102.255 21.7862L102.507 21.9886C102.856 21.8885 103.045 21.7818 103.08 21.6687L103.232 21.1311L104.915 19.6837L105.605 18.4736L105.874 17.9861H106.092L106.295 17.5486L106.194 17.3636L106.295 17.0611L106.362 15.6812L106.632 15.0261L106.717 14.5385L106.952 14.3709L107.119 13.3458C106.895 12.9432 106.784 12.6276 106.784 12.4034V12.3708L106.852 10.7558L106.819 10.2335C107.156 10.0202 107.324 9.79601 107.324 9.56095L107.313 9.55877Z" fill="#F8F7F8"/>
</svg>
