<svg width="35" height="35" viewBox="0 0 35 35" fill="none" xmlns="http://www.w3.org/2000/svg">
<g opacity="0.85">
<path d="M7.24744 27.9894C5.93319 27.0288 3.07599 23.5526 2.92047 18.8506C2.92047 18.8506 7.653 19.0884 8.84833 23.824L8.78125 24.0283C8.25981 22.3207 6.50951 19.8843 4.03042 19.5916C4.03042 19.5916 5.6557 23.6959 7.86341 26.4312L7.80242 26.5897C5.59472 24.257 3.67365 20.3203 3.67365 20.3203C3.51204 22.6744 5.9088 26.5226 7.28099 27.8186L7.2505 27.9894H7.24744Z" fill="#F8F7F8"/>
<path d="M12.0144 23.3183C11.74 21.446 12.9658 19.0005 13.1914 18.6407C12.7615 18.8236 11.3344 19.6744 10.5355 21.1076L10.3403 20.7386C10.9837 19.6164 11.9748 18.7016 12.7828 18.2504C11.1758 18.29 9.74572 19.0554 9.29443 19.3938L9.12976 19.2292C10.8221 17.7442 13.5299 17.5978 14.3075 17.7198C14.3075 17.7198 11.8924 20.6837 12.1211 23.6629L12.0144 23.3183Z" fill="#F8F7F8"/>
<path d="M3.913 13.2951C3.51964 13.7952 3.38242 15.7894 3.38242 15.7894C3.2391 15.7406 2.92807 15.7223 2.92807 15.7223C2.95856 13.661 3.62941 12.2705 3.62941 12.2705C5.32788 12.7706 7.86186 14.5087 8.70956 16.1279C8.70956 16.1279 8.61199 16.1706 8.48392 16.2285C8.48392 16.2285 6.91047 14.0086 4.62654 13.2188C5.56572 14.2221 6.64213 17.0091 6.64213 17.0091C6.64213 17.0091 6.5476 16.9329 6.31586 16.7987C6.31586 16.7987 4.62654 13.4841 3.913 13.2981V13.2951Z" fill="#F8F7F8"/>
<path d="M12.2724 15.5027C12.3669 14.8959 13.7909 13.478 14.0684 13.3682C13.0011 13.478 11.0587 14.2312 11.0587 14.2312L10.9337 14.0695C10.9337 14.0695 12.7481 12.9383 15.282 12.6242C15.2028 14.4202 14.7423 15.3259 14.7423 15.3259C14.6325 15.3106 14.5228 15.3045 14.3611 15.3106C14.3611 15.3106 14.7118 14.3043 14.7088 13.4719C14.1995 13.6335 13.0103 14.4934 12.4614 15.457L12.2724 15.4997V15.5027Z" fill="#F8F7F8"/>
<path d="M7.23024 11.2493C6.78504 10.0387 6.29106 9.09955 6.01357 8.93794C5.75133 9.00197 5.16891 9.59354 5.00425 10.0387L4.70541 9.93201C5.31833 8.71534 5.96478 8.19695 5.96478 8.19695C7.59921 8.90439 9.23364 10.981 9.52028 11.5451L9.29768 11.661C8.53535 10.6242 7.12962 9.38009 6.76065 9.16358C7.1967 9.80699 7.648 11.5238 7.648 11.5238C7.50469 11.417 7.23024 11.2493 7.23024 11.2493Z" fill="#F8F7F8"/>
<path d="M12.5428 10.6398C12.5428 10.6398 13.2381 8.84373 14.1437 8.16069C13.0155 8.45342 11.6036 9.2188 11.6036 9.2188C11.5548 9.14257 11.4695 9.04194 11.3932 8.95961C13.5186 7.71854 15.1896 7.58742 15.1896 7.58742C15.3329 8.13629 15.1896 9.42005 14.6804 10.2281C14.6804 10.2281 14.287 10.283 14.1315 10.3044C14.1315 10.3044 14.845 9.25234 14.8237 8.14544C13.8266 8.5327 13.0581 10.4812 13.0581 10.4812C12.9301 10.5087 12.677 10.591 12.5428 10.6367V10.6398Z" fill="#F8F7F8"/>
<path d="M9.38225 5.15607C9.12916 5.24145 8.19912 5.85132 7.72952 6.32396L7.42459 6.11966C8.61382 4.8359 10.0927 4.17419 10.0927 4.17419C10.9404 5.20181 11.3064 6.388 11.3064 6.388L11.0106 6.51607C11.0106 6.51607 10.416 5.19266 10.0714 5.10423C9.72682 5.97634 9.64144 7.2601 9.64144 7.2601L9.29687 7.4766L9.04378 7.2357C9.17185 5.79643 9.38225 5.15607 9.38225 5.15607Z" fill="#F8F7F8"/>
<path d="M12.2622 3.40089C12.3384 3.5991 12.7562 4.46206 12.8629 4.59013C13.0672 4.57488 13.241 4.52914 13.6344 4.7182C13.9667 4.87676 14.2137 5.17864 14.2717 5.28537C14.7535 5.25793 15.1712 5.24268 15.2261 5.23658L15.2475 5.01093C15.2475 5.01093 14.232 5.18169 14.1649 4.64196C14.1649 4.64196 14.0155 4.40717 15.1712 2.90081V2.74529L15.0706 2.78188C14.8541 3.09596 14.0582 4.31264 13.5612 4.2791C13.1068 4.25165 12.6403 3.86744 12.5854 3.28807L12.2591 3.40089H12.2622Z" fill="#F8F7F8"/>
<path d="M27.8142 27.5747C29.1742 26.291 31.5466 22.4824 31.388 20.1527C31.388 20.1527 29.4853 24.0497 27.302 26.3581L27.241 26.1995C29.4243 23.4917 31.0343 19.43 31.0343 19.43C28.5796 19.7197 26.8476 22.1317 26.3323 23.821L26.2652 23.6198C27.4453 18.933 32.1321 18.6982 32.1321 18.6982C31.9766 23.3514 29.1498 26.7911 27.8478 27.7455L27.8173 27.5747H27.8142Z" fill="#F8F7F8"/>
<path d="M22.9169 23.1504C23.1852 21.3239 21.9869 18.9363 21.7673 18.5856C22.1851 18.7655 23.5786 19.5949 24.3592 20.9946L24.5513 20.6347C23.9232 19.54 22.9565 18.6466 22.1668 18.2075C23.7341 18.2471 25.1307 18.9942 25.5729 19.3235L25.7345 19.1619C24.0817 17.7135 21.438 17.5671 20.6787 17.6891C20.6787 17.6891 23.0358 20.5829 22.8132 23.4889L22.9169 23.1535V23.1504Z" fill="#F8F7F8"/>
<path d="M31.3163 13.2068C31.7493 13.7557 31.8957 15.936 31.8957 15.936C32.0543 15.8841 32.3927 15.8628 32.3927 15.8628C32.3592 13.6093 31.6273 12.0877 31.6273 12.0877C29.7703 12.6336 26.9985 14.5363 26.0715 16.308C26.0715 16.308 26.1782 16.3537 26.3185 16.4178C26.3185 16.4178 28.0414 13.9905 30.5387 13.1245C29.5111 14.2192 28.3341 17.2685 28.3341 17.2685C28.3341 17.2685 28.4378 17.1831 28.6909 17.0368C28.6909 17.0368 30.5387 13.4111 31.3194 13.2068H31.3163Z" fill="#F8F7F8"/>
<path d="M22.9968 15.6761C22.884 14.9626 21.2099 13.2977 20.8837 13.1696C22.1369 13.2977 24.4209 14.182 24.4209 14.182L24.5703 13.9899C24.5703 13.9899 22.4388 12.6604 19.4596 12.2914C19.5542 14.4046 20.0939 15.4688 20.0939 15.4688C20.222 15.4505 20.35 15.4413 20.5391 15.4505C20.5391 15.4505 20.1274 14.2673 20.1305 13.2885C20.7281 13.4776 22.1278 14.4899 22.7712 15.6243L22.9938 15.6761H22.9968Z" fill="#F8F7F8"/>
<path d="M17.5 0C7.83368 0 0 7.83368 0 17.5C0 27.1663 7.83368 35 17.5 35C27.1663 35 35 27.1663 35 17.5C35 7.83368 27.1663 0 17.5 0ZM13.9963 28.941C14.1 29.1606 14.2128 29.4015 14.3348 29.6698C14.3074 29.6851 14.2799 29.7003 14.2525 29.7125C14.0878 29.7979 13.9537 29.8741 13.8195 30.0479C12.7126 29.188 11.8252 28.0811 11.3587 26.9773C11.1757 26.5473 11.0873 25.9253 10.9806 25.2056C10.7153 23.3791 10.3555 20.9061 8.09897 19.0765C8.8308 18.4514 11.1208 16.7468 14.408 16.7468C14.9142 16.7468 15.4295 16.7865 15.9449 16.8688C14.8898 18.2257 13.0145 20.6835 12.9779 23.5895C12.9382 26.6876 13.2919 27.4408 13.9994 28.941H13.9963ZM15.3807 15.9692C15.091 15.9327 14.7648 15.9144 14.4141 15.9144C13.298 15.9144 12.0509 16.1004 11.3007 16.3657C10.9531 15.7954 10.142 14.5178 9.46201 13.8378C10.9165 12.7919 14.4171 11.746 16.0912 11.746C16.1095 11.746 16.1278 11.746 16.1431 11.746C16.1431 11.8252 16.1431 11.9076 16.1461 11.9899C16.1614 12.9047 16.1796 14.1427 15.3807 15.9662V15.9692ZM15.2832 11.0355C14.0085 11.1513 12.5601 11.5234 11.9015 11.7307C11.4227 10.9135 10.5354 9.59009 9.85232 8.93753C11.2337 7.9587 13.8042 6.68409 16.1248 6.6414C16.3809 8.13252 16.0546 9.84928 15.2832 11.0324V11.0355ZM12.5937 5.83029C12.9809 5.56195 13.5786 5.67477 13.7189 6.32732C13.4414 6.39136 13.0541 6.49199 12.798 6.58651C12.7248 6.24499 12.6638 5.99495 12.5967 5.83029H12.5937ZM13.3377 2.38151C13.3377 2.39676 13.3377 2.41201 13.3377 2.4303C13.3377 2.60716 13.3499 2.84196 13.4139 3.05236C13.4719 3.25362 13.6182 3.47927 13.8927 3.47927H13.9049H13.9171C14.4019 3.46707 14.6154 3.10115 14.6062 2.83891C14.6032 2.65595 14.4995 2.30528 14.4385 2.10403C14.7861 2.01864 15.6369 1.81739 16.0455 1.72591C16.0607 2.18026 16.0821 3.16519 16.0882 3.52805C15.8961 3.54635 15.5545 3.58904 15.3106 3.71406C15.1581 3.7903 14.8867 3.96106 14.8867 4.31173C14.8867 4.32697 14.8867 4.34222 14.8867 4.36357C14.8989 4.6441 15.1673 4.76303 15.3716 4.74778C15.6308 4.74778 15.9327 4.64715 16.1339 4.57092L16.0485 5.79979C15.7375 5.81199 14.9569 5.85773 14.347 5.98885C14.1458 5.40338 13.5572 5.00392 12.9504 5.00087C12.8132 5.00087 12.6729 5.02222 12.5357 5.06796C12.243 4.37576 11.6362 3.33595 11.3953 2.93344L13.3407 2.38456L13.3377 2.38151ZM10.3799 3.21702C11.3709 4.57397 12.0234 5.83028 12.1759 6.6719C11.2032 7.07745 9.86452 7.83673 9.23027 8.33987C8.47404 7.65682 7.15673 6.77557 6.12912 6.26329C7.23602 5.21432 8.56552 4.07693 10.3799 3.22007V3.21702ZM5.51011 6.92499C8.76372 8.30633 10.2365 10.7397 11.0324 12.06C10.1481 12.4381 9.27601 12.9199 8.83081 13.2432C7.9709 12.4564 5.73575 10.7366 3.28411 10.0475C3.78724 8.93449 4.99782 7.51351 5.51011 6.92194V6.92499ZM2.85416 10.9257C5.08015 11.4593 8.71493 13.5054 10.4927 16.6553C9.49251 17.0457 8.27888 17.6921 7.44642 18.4971C6.30597 17.4817 4.02509 16.4754 1.71981 16.4754C1.76555 15.5332 1.96986 12.6668 2.85416 10.9287V10.9257ZM15.2923 32.5606L14.8227 32.5545C7.3214 31.4933 1.85703 25.166 1.73201 17.4512C1.88752 17.439 2.04609 17.4329 2.2016 17.4329C5.11674 17.4329 7.36714 19.6254 7.98615 20.2962C9.40713 21.8361 9.65412 23.2571 10.0658 25.6112C10.1176 25.9009 10.1695 26.2058 10.2274 26.5229C10.636 28.7672 13.0053 30.7066 13.8774 31.0999C13.9171 31.1182 13.9597 31.1274 13.9994 31.1274C14.1031 31.1274 14.2037 31.0725 14.2586 30.978C14.5391 30.4931 14.8898 30.2583 15.335 30.2583C15.9692 30.2583 16.4876 30.7645 16.4876 31.3835C16.4876 32.0025 15.9266 32.5606 15.2892 32.5606H15.2923ZM33.2863 16.4724C30.981 16.4724 28.7001 17.4787 27.5597 18.4941C26.7272 17.6921 25.5136 17.0457 24.5134 16.6523C26.2912 13.5024 29.9259 11.4563 32.1519 10.9226C33.0362 12.6607 33.2436 15.5271 33.2863 16.4693V16.4724ZM22.0282 23.5925C21.9916 20.6896 20.1163 18.2288 19.0612 16.8718C19.5766 16.7926 20.0889 16.7499 20.5981 16.7499C23.8792 16.7499 26.1753 18.4544 26.9071 19.0795C24.6537 20.9091 24.2939 23.3821 24.0286 25.2087C23.9249 25.9283 23.8334 26.5473 23.6505 26.9803C23.1839 28.0872 22.2935 29.1911 21.1897 30.051C21.0555 29.8772 20.9213 29.7979 20.7567 29.7155C20.7292 29.7003 20.7018 29.6881 20.6743 29.6729C20.7963 29.4045 20.9091 29.1636 21.0128 28.9441C21.7172 27.4438 22.0709 26.6906 22.0343 23.5925H22.0282ZM18.8569 11.996C18.8569 11.9137 18.8569 11.8313 18.86 11.752C18.8783 11.752 18.8966 11.752 18.9118 11.752C20.5859 11.752 24.0865 12.798 25.541 13.8439C24.861 14.5239 24.0499 15.8015 23.7023 16.3718C22.9522 16.1034 21.705 15.9205 20.589 15.9205C20.2352 15.9205 19.912 15.9388 19.6223 15.9753C18.8234 14.1549 18.8417 12.9138 18.8569 11.999V11.996ZM31.7189 10.0505C29.2673 10.7397 27.0321 12.4595 26.1722 13.2462C25.727 12.923 24.8549 12.4412 23.9706 12.0631C24.7665 10.7427 26.2393 8.30633 29.4929 6.92804C30.0052 7.5196 31.2158 8.94058 31.7189 10.0536V10.0505ZM28.8739 6.26329C27.8463 6.77862 26.529 7.65987 25.7728 8.33987C25.1385 7.83673 23.7999 7.07745 22.8271 6.6719C22.9796 5.83333 23.6322 4.57397 24.6232 3.21702C26.4345 4.07388 27.767 5.21127 28.8739 6.26024V6.26329ZM19.6955 3.71711C19.4546 3.59514 19.11 3.5494 18.9179 3.53415C18.924 3.16824 18.9423 2.18331 18.9606 1.72896C19.3692 1.82044 20.2169 2.02474 20.5676 2.10707C20.5036 2.30833 20.4029 2.659 20.3999 2.84196C20.3877 3.10725 20.6042 3.47012 21.089 3.48231H21.1104C21.3818 3.48231 21.5312 3.25362 21.5891 3.05236C21.6532 2.84501 21.6654 2.60716 21.6654 2.4303C21.6654 2.41201 21.6654 2.39676 21.6654 2.38151L23.6108 2.93039C23.3699 3.3329 22.7631 4.37271 22.4704 5.06491C22.3332 5.01917 22.1929 4.99782 22.0557 4.99782C21.4458 4.99782 20.8603 5.40033 20.6591 5.9858C20.0492 5.85468 19.2656 5.80894 18.9576 5.79674L18.8722 4.56787C19.0734 4.64715 19.3723 4.74168 19.6345 4.74473C19.8388 4.75998 20.1072 4.64105 20.1194 4.35747C20.1194 4.33917 20.1194 4.32697 20.1194 4.30868C20.1194 3.95801 19.851 3.78725 19.6955 3.71101V3.71711ZM22.4094 5.83333C22.3423 5.998 22.2813 6.24804 22.2081 6.58956C21.9489 6.49808 21.5617 6.39441 21.2872 6.33037C21.4245 5.67477 22.0252 5.56499 22.4124 5.83333H22.4094ZM18.8783 6.6475C21.1988 6.69019 23.7694 7.96175 25.1507 8.94363C24.4677 9.59619 23.5773 10.9226 23.1016 11.7368C22.4429 11.5264 20.9945 11.1574 19.7199 11.0416C18.9484 9.85843 18.6191 8.13861 18.8783 6.65055V6.6475ZM20.1803 32.5575L19.7138 32.5636C19.0734 32.5636 18.5124 32.0147 18.5124 31.3866C18.5124 30.7584 19.0277 30.2614 19.665 30.2614C20.1102 30.2614 20.4609 30.4962 20.7414 30.981C20.7963 31.0755 20.8969 31.1304 21.0006 31.1304C21.0433 31.1304 21.0829 31.1213 21.1226 31.103C21.9977 30.7096 24.3671 28.7703 24.7726 26.526C24.8305 26.2088 24.8824 25.9039 24.9342 25.6142C25.3459 23.2602 25.5929 21.8392 27.0139 20.2993C27.6359 19.6284 29.8863 17.436 32.7984 17.436C32.9539 17.436 33.1125 17.4421 33.268 17.4543C33.143 25.1721 27.6786 31.4963 20.1773 32.5575H20.1803Z" fill="#F8F7F8"/>
<path d="M27.8753 11.2181C28.354 9.91601 28.8877 8.90669 29.1834 8.73288C29.464 8.80301 30.0921 9.43727 30.269 9.91601L30.5922 9.80014C29.9336 8.49198 29.2383 7.93396 29.2383 7.93396C27.4789 8.69629 25.7225 10.9284 25.4145 11.5321L25.6554 11.6572C26.4757 10.5442 27.9851 9.20247 28.3815 8.97073C27.9119 9.66292 27.427 11.5108 27.427 11.5108C27.5795 11.3949 27.8753 11.2181 27.8753 11.2181Z" fill="#F8F7F8"/>
<path d="M22.5181 10.6246C22.5181 10.6246 21.7985 8.77066 20.8654 8.06627C22.0272 8.36816 23.4848 9.15793 23.4848 9.15793C23.5366 9.07865 23.625 8.97497 23.7013 8.89264C21.5058 7.60888 19.7829 7.47776 19.7829 7.47776C19.6365 8.04493 19.7829 9.36833 20.3074 10.2038C20.3074 10.2038 20.7129 10.2587 20.8746 10.2801C20.8746 10.2801 20.1397 9.19452 20.161 8.05103C21.1917 8.45049 21.9845 10.463 21.9845 10.463C22.1187 10.4905 22.3779 10.5759 22.5181 10.6246Z" fill="#F8F7F8"/>
<path d="M25.6012 5.22379C25.8421 5.30612 26.7295 5.88854 27.1777 6.33984L27.4674 6.14468C26.333 4.91886 24.9212 4.28765 24.9212 4.28765C24.1132 5.26953 23.7625 6.40387 23.7625 6.40387L24.0461 6.52585C24.0461 6.52585 24.6132 5.26343 24.9426 5.17805C25.2719 6.01051 25.3542 7.23634 25.3542 7.23634L25.6835 7.44369L25.9244 7.21194C25.8025 5.83975 25.6012 5.22684 25.6012 5.22684V5.22379Z" fill="#F8F7F8"/>
<path d="M22.6969 3.42783C22.6207 3.62298 22.2091 4.47374 22.1023 4.60181C21.9011 4.58656 21.7273 4.54083 21.34 4.72683C21.0107 4.88235 20.7667 5.18118 20.7118 5.28486C20.2362 5.25741 19.8245 5.24217 19.7696 5.23607L19.7483 5.01347C19.7483 5.01347 20.7484 5.18423 20.8155 4.6506C20.8155 4.6506 20.9619 4.41885 19.8214 2.93384V2.78137L19.919 2.81796C20.1325 3.12899 20.9192 4.32432 21.4101 4.29383C21.8553 4.26639 22.3188 3.88827 22.3737 3.31805L22.6939 3.43088L22.6969 3.42783Z" fill="#F8F7F8"/>
</g>
</svg>
