<svg width="225" height="83" viewBox="0 0 225 83" fill="none" xmlns="http://www.w3.org/2000/svg">
<mask id="path-1-outside-1_2868_10939" maskUnits="userSpaceOnUse" x="1" y="24" width="21" height="41" fill="black">
<rect fill="white" x="1" y="24" width="21" height="41"/>
<path d="M9.728 25.28H1.664V24.64H21.056V25.28H12.928V64H9.728V25.28Z"/>
</mask>
<path d="M9.728 25.28H1.664V24.64H21.056V25.28H12.928V64H9.728V25.28Z" fill="#231F20"/>
<path d="M9.728 25.28H10.0259V24.9821H9.728V25.28ZM1.664 25.28H1.36606V25.5779H1.664V25.28ZM1.664 24.64V24.3421H1.36606V24.64H1.664ZM21.056 24.64H21.3539V24.3421H21.056V24.64ZM21.056 25.28V25.5779H21.3539V25.28H21.056ZM12.928 25.28V24.9821H12.6301V25.28H12.928ZM12.928 64V64.2979H13.2259V64H12.928ZM9.728 64H9.43006V64.2979H9.728V64ZM9.728 25.28V24.9821H1.664V25.28V25.5779H9.728V25.28ZM1.664 25.28H1.96194V24.64H1.664H1.36606V25.28H1.664ZM1.664 24.64V24.9379H21.056V24.64V24.3421H1.664V24.64ZM21.056 24.64H20.7581V25.28H21.056H21.3539V24.64H21.056ZM21.056 25.28V24.9821H12.928V25.28V25.5779H21.056V25.28ZM12.928 25.28H12.6301V64H12.928H13.2259V25.28H12.928ZM12.928 64V63.7021H9.728V64V64.2979H12.928V64ZM9.728 64H10.0259V25.28H9.728H9.43006V64H9.728Z" fill="#231F20" mask="url(#path-1-outside-1_2868_10939)"/>
<path d="M35.4764 60.3801C33.5775 58.9923 29.4494 53.9698 29.2247 47.1763C29.2247 47.1763 36.0623 47.5199 37.7894 54.3619L37.6924 54.6571C36.9391 52.1899 34.4102 48.6698 30.8284 48.2468C30.8284 48.2468 33.1766 54.1769 36.3663 58.1288L36.2782 58.3579C33.0885 54.9875 30.3129 49.2998 30.3129 49.2998C30.0794 52.701 33.5423 58.261 35.5248 60.1334L35.4808 60.3801H35.4764Z" fill="#231F20"/>
<path d="M42.3593 53.6297C41.9628 50.9246 43.7339 47.3912 44.0599 46.8714C43.4387 47.1357 41.3768 48.3649 40.2225 50.4356L39.9406 49.9025C40.8702 48.2812 42.302 46.9595 43.4695 46.3074C41.1477 46.3647 39.0815 47.4705 38.4294 47.9596L38.1915 47.7217C40.6367 45.5761 44.5489 45.3646 45.6724 45.5409C45.6724 45.5409 42.1831 49.8232 42.5135 54.1275L42.3593 53.6297Z" fill="#231F20"/>
<path d="M30.6622 39.149C30.0938 39.8715 29.8956 42.7529 29.8956 42.7529C29.6885 42.6824 29.2391 42.6559 29.2391 42.6559C29.2832 39.6777 30.2524 37.6687 30.2524 37.6687C32.7064 38.3912 36.3675 40.9025 37.5923 43.2419C37.5923 43.2419 37.4513 43.3036 37.2663 43.3873C37.2663 43.3873 34.993 40.1799 31.6931 39.0389C33.05 40.4883 34.6053 44.5151 34.6053 44.5151C34.6053 44.5151 34.4687 44.405 34.1338 44.2111C34.1338 44.2111 31.6931 39.4222 30.6622 39.1534V39.149Z" fill="#231F20"/>
<path d="M42.7294 42.3384C42.866 41.4617 44.9234 39.413 45.3243 39.2544C43.7823 39.413 40.9759 40.5012 40.9759 40.5012L40.7953 40.2677C40.7953 40.2677 43.4167 38.6332 47.0778 38.1794C46.9632 40.7744 46.298 42.0829 46.298 42.0829C46.1394 42.0608 45.9808 42.052 45.7473 42.0608C45.7473 42.0608 46.2539 40.607 46.2495 39.4042C45.5138 39.6377 43.7956 40.8801 43.0025 42.2723L42.7294 42.334V42.3384Z" fill="#231F20"/>
<path d="M35.4509 36.193C34.8077 34.444 34.0939 33.087 33.693 32.8535C33.3141 32.9461 32.4726 33.8008 32.2347 34.444L31.803 34.2898C32.6885 32.5319 33.6225 31.783 33.6225 31.783C35.984 32.8051 38.3454 35.8053 38.7595 36.6204L38.4379 36.7878C37.3365 35.2899 35.3055 33.4924 34.7724 33.1796C35.4024 34.1092 36.0545 36.5896 36.0545 36.5896C35.8474 36.4354 35.4509 36.193 35.4509 36.193Z" fill="#231F20"/>
<path d="M43.1291 35.3112C43.1291 35.3112 44.1336 32.7163 45.4421 31.7294C43.812 32.1523 41.7721 33.2582 41.7721 33.2582C41.7016 33.148 41.5783 33.0026 41.4681 32.8837C44.5389 31.0906 46.9532 30.9011 46.9532 30.9011C47.1603 31.6941 46.9532 33.5489 46.2175 34.7164C46.2175 34.7164 45.6491 34.7957 45.4244 34.8266C45.4244 34.8266 46.4554 33.3066 46.4245 31.7074C44.9839 32.2669 43.8736 35.0821 43.8736 35.0821C43.6886 35.1218 43.3229 35.2407 43.1291 35.3068V35.3112Z" fill="#231F20"/>
<path d="M38.5607 27.3906C38.1951 27.5139 36.8513 28.395 36.1729 29.0779L35.7323 28.7827C37.4505 26.928 39.5873 25.9719 39.5873 25.9719C40.812 27.4566 41.3407 29.1704 41.3407 29.1704L40.9134 29.3555C40.9134 29.3555 40.0543 27.4434 39.5564 27.3157C39.0586 28.5757 38.9352 30.4305 38.9352 30.4305L38.4374 30.7433L38.0717 30.3952C38.2568 28.3157 38.5607 27.3906 38.5607 27.3906Z" fill="#231F20"/>
<path d="M42.7113 24.8522C42.8215 25.1386 43.425 26.3854 43.5792 26.5705C43.8744 26.5484 44.1255 26.4824 44.6939 26.7555C45.1741 26.9846 45.531 27.4208 45.6147 27.575C46.3108 27.5353 46.9143 27.5133 46.9936 27.5045L47.0245 27.1784C47.0245 27.1784 45.5574 27.4252 45.4605 26.6454C45.4605 26.6454 45.2446 26.3061 46.9143 24.1297V23.905L46.7689 23.9579C46.4561 24.4117 45.3063 26.1695 44.5881 26.1211C43.9317 26.0814 43.2576 25.5263 43.1783 24.6892L42.7069 24.8522H42.7113Z" fill="#231F20"/>
<path d="M65.1893 59.7807C67.1542 57.9259 70.5818 52.4233 70.3527 49.0573C70.3527 49.0573 67.6036 54.6878 64.4491 58.0229L64.361 57.7938C67.5155 53.8815 69.8417 48.0132 69.8417 48.0132C66.2951 48.4317 63.7927 51.9166 63.0481 54.3574L62.9512 54.0666C64.6562 47.295 71.4277 46.9558 71.4277 46.9558C71.203 53.6789 67.1189 58.6485 65.2377 60.0275L65.1937 59.7807H65.1893Z" fill="#231F20"/>
<path d="M58.1168 53.3887C58.5045 50.7497 56.7731 47.3001 56.4559 46.7934C57.0595 47.0534 59.0729 48.2517 60.2007 50.2739L60.4783 49.754C59.5707 48.1724 58.1741 46.8815 57.033 46.2471C59.2975 46.3044 61.3154 47.3838 61.9542 47.8596L62.1877 47.6261C59.7998 45.5334 55.9801 45.3219 54.8831 45.4981C54.8831 45.4981 58.2886 49.6791 57.967 53.8777L58.1168 53.3931V53.3887Z" fill="#231F20"/>
<path d="M70.2465 39.0204C70.8721 39.8135 71.0835 42.9635 71.0835 42.9635C71.3126 42.8886 71.8017 42.8578 71.8017 42.8578C71.7532 39.602 70.6958 37.4036 70.6958 37.4036C68.0128 38.1922 64.008 40.9413 62.6687 43.501C62.6687 43.501 62.8229 43.5671 63.0256 43.6596C63.0256 43.6596 65.5148 40.1527 69.123 38.9015C67.6383 40.4831 65.9377 44.8888 65.9377 44.8888C65.9377 44.8888 66.0875 44.7655 66.4532 44.554C66.4532 44.554 69.123 39.3156 70.2509 39.0204H70.2465Z" fill="#231F20"/>
<path d="M58.2312 42.589C58.0682 41.5581 55.6495 39.1526 55.1781 38.9676C56.9888 39.1526 60.2886 40.4302 60.2886 40.4302L60.5045 40.1527C60.5045 40.1527 57.425 38.2318 53.1206 37.6987C53.2572 40.7519 54.037 42.2894 54.037 42.2894C54.222 42.263 54.4071 42.2498 54.6802 42.263C54.6802 42.263 54.0854 40.5536 54.0899 39.1394C54.9534 39.4125 56.9756 40.8752 57.9052 42.5141L58.2268 42.589H58.2312Z" fill="#231F20"/>
<path d="M50.2842 19.9402C36.3182 19.9402 25 31.2584 25 45.2244C25 59.1904 36.3182 70.5086 50.2842 70.5086C64.2502 70.5086 75.5684 59.1904 75.5684 45.2244C75.5684 31.2584 64.2502 19.9402 50.2842 19.9402ZM45.2221 61.7545C45.3719 62.0717 45.5349 62.4197 45.7111 62.8074C45.6714 62.8295 45.6318 62.8515 45.5921 62.8691C45.3542 62.9925 45.1604 63.1026 44.9665 63.3537C43.3673 62.1113 42.0852 60.5121 41.4112 58.9172C41.1468 58.296 41.0191 57.3973 40.8649 56.3575C40.4816 53.7185 39.9617 50.1455 36.7015 47.5021C37.7588 46.5989 41.0675 44.1362 45.8168 44.1362C46.5482 44.1362 47.2927 44.1934 48.0373 44.3124C46.5129 46.2729 43.8034 49.8239 43.7506 54.0225C43.6933 58.4987 44.2044 59.5869 45.2265 61.7545H45.2221ZM47.2222 43.0127C46.8037 42.9599 46.3323 42.9334 45.8256 42.9334C44.2132 42.9334 42.4112 43.2022 41.3274 43.5855C40.8252 42.7616 39.6533 40.9156 38.6708 39.9332C40.7723 38.422 45.83 36.9109 48.2488 36.9109C48.2752 36.9109 48.3016 36.9109 48.3237 36.9109C48.3237 37.0254 48.3237 37.1444 48.3281 37.2633C48.3501 38.585 48.3765 40.3737 47.2222 43.0083V43.0127ZM47.0813 35.8843C45.2397 36.0517 43.147 36.5892 42.1954 36.8888C41.5037 35.7081 40.2216 33.796 39.2347 32.8532C41.2305 31.439 44.9445 29.5974 48.2972 29.5358C48.6673 31.6901 48.1959 34.1705 47.0813 35.8799V35.8843ZM43.1955 28.3638C43.755 27.9761 44.6185 28.1392 44.8211 29.082C44.4202 29.1745 43.8607 29.3199 43.4906 29.4565C43.3849 28.963 43.2968 28.6017 43.1999 28.3638H43.1955ZM44.2704 23.381C44.2704 23.403 44.2704 23.4251 44.2704 23.4515C44.2704 23.707 44.2881 24.0463 44.3806 24.3503C44.4643 24.641 44.6758 24.9671 45.0723 24.9671H45.0899H45.1075C45.808 24.9494 46.1164 24.4208 46.1032 24.0419C46.0988 23.7775 45.949 23.2709 45.8609 22.9801C46.3631 22.8567 47.5923 22.566 48.1827 22.4338C48.2047 23.0902 48.2356 24.5133 48.2444 25.0376C47.9668 25.064 47.4734 25.1257 47.1209 25.3063C46.9006 25.4164 46.5085 25.6632 46.5085 26.1698C46.5085 26.1918 46.5085 26.2139 46.5085 26.2447C46.5261 26.65 46.9138 26.8219 47.209 26.7998C47.5835 26.7998 48.0197 26.6544 48.3104 26.5443L48.1871 28.3198C47.7377 28.3374 46.6099 28.4035 45.7287 28.5929C45.4379 27.747 44.5876 27.1699 43.7109 27.1655C43.5127 27.1655 43.31 27.1963 43.1117 27.2624C42.6888 26.2623 41.8121 24.76 41.464 24.1784L44.2748 23.3854L44.2704 23.381ZM39.9969 24.5882C41.4288 26.5487 42.3716 28.3638 42.5919 29.5798C41.1865 30.1658 39.2524 31.2628 38.336 31.9897C37.2434 31.0028 35.3401 29.7296 33.8554 28.9894C35.4547 27.4739 37.3756 25.8306 39.9969 24.5926V24.5882ZM32.9611 29.9455C37.6619 31.9413 39.7899 35.457 40.9397 37.3646C39.6621 37.9109 38.4021 38.607 37.7588 39.074C36.5164 37.9374 33.2871 35.4526 29.7449 34.4569C30.4719 32.8488 32.2209 30.7958 32.9611 29.9411V29.9455ZM29.1237 35.7257C32.3399 36.4967 37.5914 39.4529 40.1599 44.004C38.7149 44.5679 36.9614 45.5019 35.7587 46.665C34.1109 45.1979 30.8155 43.7441 27.4848 43.7441C27.5509 42.3827 27.8461 38.2414 29.1237 35.7301V35.7257ZM47.0945 66.984L46.416 66.9752C35.578 65.442 27.6831 56.3002 27.5024 45.1539C27.7271 45.1363 27.9562 45.1274 28.1809 45.1274C32.3927 45.1274 35.6441 48.2951 36.5385 49.2644C38.5915 51.4892 38.9484 53.5423 39.5431 56.9435C39.618 57.362 39.6929 57.8026 39.7766 58.2608C40.367 61.5034 43.7902 64.3054 45.0502 64.8737C45.1075 64.9001 45.1692 64.9133 45.2265 64.9133C45.3763 64.9133 45.5217 64.834 45.601 64.6975C46.0063 63.997 46.5129 63.6577 47.1562 63.6577C48.0725 63.6577 48.8215 64.3891 48.8215 65.2834C48.8215 66.1778 48.0109 66.984 47.0901 66.984H47.0945ZM73.0924 43.7397C69.7617 43.7397 66.4663 45.1935 64.8185 46.6606C63.6158 45.5019 61.8623 44.5679 60.4173 43.9996C62.9858 39.4485 68.2373 36.4923 71.4535 35.7213C72.7311 38.2326 73.0307 42.3739 73.0924 43.7353V43.7397ZM56.8266 54.0269C56.7738 49.8327 54.0643 46.2773 52.5399 44.3168C53.2845 44.2023 54.0246 44.1406 54.7604 44.1406C59.5009 44.1406 62.8183 46.6033 63.8757 47.5065C60.6199 50.1499 60.1 53.7229 59.7168 56.3619C59.567 57.4017 59.4348 58.296 59.1704 58.9216C58.4964 60.5209 57.2099 62.1157 55.6151 63.3581C55.4212 63.107 55.2274 62.9925 54.9895 62.8735C54.9498 62.8515 54.9102 62.8339 54.8705 62.8118C55.0467 62.4241 55.2097 62.0761 55.3595 61.7589C56.3772 59.5913 56.8883 58.5031 56.8354 54.0269H56.8266ZM52.2447 37.2721C52.2447 37.1532 52.2447 37.0342 52.2491 36.9197C52.2756 36.9197 52.302 36.9197 52.324 36.9197C54.7427 36.9197 59.8005 38.4308 61.902 39.942C60.9195 40.9244 59.7476 42.7704 59.2453 43.5943C58.1615 43.2066 56.3596 42.9422 54.7471 42.9422C54.2361 42.9422 53.7691 42.9687 53.3505 43.0215C52.1963 40.3913 52.2227 38.5982 52.2447 37.2765V37.2721ZM70.8279 34.4613C67.2857 35.457 64.0563 37.9418 62.8139 39.0784C62.1707 38.6114 60.9107 37.9154 59.633 37.369C60.7829 35.4614 62.9109 31.9413 67.6117 29.9499C68.3519 30.8046 70.1009 32.8576 70.8279 34.4657V34.4613ZM66.7174 28.9894C65.2327 29.734 63.3294 31.0072 62.2368 31.9897C61.3204 31.2628 59.3863 30.1658 57.9809 29.5798C58.2012 28.3682 59.144 26.5487 60.5759 24.5882C63.1928 25.8262 65.1181 27.4695 66.7174 28.985V28.9894ZM53.4563 25.3107C53.1082 25.1345 52.6104 25.0684 52.3328 25.0464C52.3416 24.5177 52.3681 23.0947 52.3945 22.4382C52.9849 22.5704 54.2097 22.8656 54.7163 22.9845C54.6238 23.2753 54.4784 23.7819 54.474 24.0463C54.4564 24.4296 54.7692 24.9538 55.4697 24.9715H55.5005C55.8926 24.9715 56.1085 24.641 56.1922 24.3503C56.2847 24.0507 56.3023 23.707 56.3023 23.4515C56.3023 23.4251 56.3023 23.403 56.3023 23.381L59.1132 24.174C58.7651 24.7556 57.8884 26.2579 57.4654 27.258C57.2672 27.1919 57.0645 27.1611 56.8663 27.1611C55.9851 27.1611 55.1392 27.7426 54.8485 28.5885C53.9673 28.3991 52.8351 28.333 52.3901 28.3154L52.2667 26.5399C52.5575 26.6544 52.9893 26.791 53.3682 26.7954C53.6633 26.8174 54.0511 26.6456 54.0687 26.2359C54.0687 26.2095 54.0687 26.1918 54.0687 26.1654C54.0687 25.6588 53.681 25.412 53.4563 25.3019V25.3107ZM57.3773 28.3682C57.2804 28.6062 57.1923 28.9674 57.0866 29.4609C56.7121 29.3287 56.1526 29.1789 55.756 29.0864C55.9543 28.1392 56.8222 27.9805 57.3817 28.3682H57.3773ZM52.2756 29.5446C55.6283 29.6062 59.3423 31.4434 61.338 32.862C60.3512 33.8049 59.0647 35.7213 58.3774 36.8976C57.4258 36.5936 55.3331 36.0606 53.4915 35.8931C52.3769 34.1837 51.9011 31.6989 52.2756 29.549V29.5446ZM54.1568 66.9796L53.4827 66.9884C52.5575 66.9884 51.7469 66.1954 51.7469 65.2878C51.7469 64.3803 52.4914 63.6621 53.4122 63.6621C54.0555 63.6621 54.5621 64.0014 54.9674 64.7019C55.0467 64.8384 55.1921 64.9178 55.3419 64.9178C55.4036 64.9178 55.4609 64.9045 55.5181 64.8781C56.7826 64.3098 60.2058 61.5078 60.7917 58.2652C60.8754 57.807 60.9503 57.3664 61.0252 56.9479C61.62 53.5467 61.9769 51.4937 64.0299 49.2688C64.9287 48.2995 68.1801 45.1319 72.3875 45.1319C72.6122 45.1319 72.8413 45.1407 73.066 45.1583C72.8853 56.3091 64.9903 65.4464 54.1524 66.9796H54.1568Z" fill="#231F20"/>
<path d="M65.2668 36.1485C65.9585 34.2673 66.7295 32.809 67.1568 32.5579C67.5622 32.6592 68.4697 33.5756 68.7253 34.2673L69.1923 34.0998C68.2406 32.2098 67.2362 31.4036 67.2362 31.4036C64.6941 32.505 62.1564 35.7299 61.7114 36.6023L62.0595 36.7829C63.2446 35.1748 65.4254 33.2363 65.9981 32.9015C65.3197 33.9016 64.6192 36.5714 64.6192 36.5714C64.8395 36.404 65.2668 36.1485 65.2668 36.1485Z" fill="#231F20"/>
<path d="M57.5322 35.2888C57.5322 35.2888 56.4924 32.6102 55.1443 31.5925C56.8229 32.0286 58.9288 33.1697 58.9288 33.1697C59.0037 33.0552 59.1314 32.9054 59.2416 32.7864C56.0695 30.9316 53.5803 30.7422 53.5803 30.7422C53.3688 31.5616 53.5803 33.4737 54.3381 34.6809C54.3381 34.6809 54.924 34.7602 55.1575 34.791C55.1575 34.791 54.0957 33.2226 54.1266 31.5705C55.6157 32.1476 56.7612 35.0553 56.7612 35.0553C56.955 35.095 57.3295 35.2184 57.5322 35.2888Z" fill="#231F20"/>
<path d="M61.9902 27.4868C62.3383 27.6058 63.6203 28.4473 64.268 29.0993L64.6865 28.8173C63.0476 27.0463 61.0078 26.1343 61.0078 26.1343C59.8403 27.5529 59.3336 29.1918 59.3336 29.1918L59.7433 29.368C59.7433 29.368 60.5628 27.5441 61.0386 27.4207C61.5144 28.6235 61.6334 30.3946 61.6334 30.3946L62.1092 30.6942L62.4572 30.3593C62.281 28.3768 61.9902 27.4912 61.9902 27.4912V27.4868Z" fill="#231F20"/>
<path d="M57.7958 24.892C57.6857 25.174 57.0909 26.4032 56.9367 26.5882C56.6459 26.5662 56.3948 26.5001 55.8353 26.7688C55.3595 26.9935 55.007 27.4253 54.9277 27.5751C54.2404 27.5354 53.6457 27.5134 53.5664 27.5046L53.5355 27.183C53.5355 27.183 54.9806 27.4297 55.0775 26.6587C55.0775 26.6587 55.289 26.3239 53.6413 24.1783V23.958L53.7822 24.0109C54.0906 24.4603 55.2273 26.1873 55.9366 26.1432C56.5798 26.1036 57.2495 25.5573 57.3288 24.7334L57.7914 24.8964L57.7958 24.892Z" fill="#231F20"/>
<mask id="path-20-outside-2_2868_10939" maskUnits="userSpaceOnUse" x="82.5684" y="24" width="140" height="41" fill="black">
<rect fill="white" x="82.5684" y="24" width="140" height="41"/>
<path d="M83.2324 24.64H86.4964L93.6644 52.224L100.768 24.896V24.64H103.968V64H100.768V27.456L92.9604 57.536H91.8084L84.0004 27.456V63.68H83.2964V24.96L83.2324 24.64ZM106.911 64L118.687 24.64H119.135L131.039 64H128.031L124.575 52.352H111.071L107.615 64H106.911ZM117.791 29.888L111.263 51.712H124.319L117.791 29.888ZM137.182 64H133.982V24.64H137.182V47.68L150.878 24.64H151.646L141.406 41.792L150.942 64H147.678L139.55 45.056L137.182 48.896V64ZM153.848 64L165.624 24.64H166.072L177.976 64H174.968L171.512 52.352H158.008L154.552 64H153.848ZM164.728 29.888L158.2 51.712H171.256L164.728 29.888ZM191.864 24.64C196.856 24.64 200.952 28.608 200.952 33.664H200.312C200.312 28.992 196.472 25.28 191.864 25.28C189.624 25.28 187.576 26.176 185.976 27.712C184.312 29.376 183.8 31.808 184.44 34.56C185.336 37.952 189.048 39.808 193.08 41.728C197.88 44.16 202.872 46.592 202.872 52.032C202.872 55.744 201.848 58.624 199.672 60.736C197.56 62.848 194.808 64 191.864 64C185.848 64 180.92 59.072 180.92 53.056H181.56C181.56 58.752 186.168 63.36 191.864 63.36C194.68 63.36 197.24 62.272 199.224 60.288C200.824 58.688 202.424 56 201.272 52.16C200.504 49.536 197.112 47.872 193.528 46.144C188.536 43.648 182.84 40.832 182.84 34.624C182.84 29.248 186.168 24.64 191.864 24.64ZM221.978 64H206.17V24.64H221.978V25.28H209.37V43.968H218.778V44.608H209.37V63.36H221.978V64Z"/>
</mask>
<path d="M83.2324 24.64H86.4964L93.6644 52.224L100.768 24.896V24.64H103.968V64H100.768V27.456L92.9604 57.536H91.8084L84.0004 27.456V63.68H83.2964V24.96L83.2324 24.64ZM106.911 64L118.687 24.64H119.135L131.039 64H128.031L124.575 52.352H111.071L107.615 64H106.911ZM117.791 29.888L111.263 51.712H124.319L117.791 29.888ZM137.182 64H133.982V24.64H137.182V47.68L150.878 24.64H151.646L141.406 41.792L150.942 64H147.678L139.55 45.056L137.182 48.896V64ZM153.848 64L165.624 24.64H166.072L177.976 64H174.968L171.512 52.352H158.008L154.552 64H153.848ZM164.728 29.888L158.2 51.712H171.256L164.728 29.888ZM191.864 24.64C196.856 24.64 200.952 28.608 200.952 33.664H200.312C200.312 28.992 196.472 25.28 191.864 25.28C189.624 25.28 187.576 26.176 185.976 27.712C184.312 29.376 183.8 31.808 184.44 34.56C185.336 37.952 189.048 39.808 193.08 41.728C197.88 44.16 202.872 46.592 202.872 52.032C202.872 55.744 201.848 58.624 199.672 60.736C197.56 62.848 194.808 64 191.864 64C185.848 64 180.92 59.072 180.92 53.056H181.56C181.56 58.752 186.168 63.36 191.864 63.36C194.68 63.36 197.24 62.272 199.224 60.288C200.824 58.688 202.424 56 201.272 52.16C200.504 49.536 197.112 47.872 193.528 46.144C188.536 43.648 182.84 40.832 182.84 34.624C182.84 29.248 186.168 24.64 191.864 24.64ZM221.978 64H206.17V24.64H221.978V25.28H209.37V43.968H218.778V44.608H209.37V63.36H221.978V64Z" fill="#231F20"/>
<path d="M83.2324 24.64V24.3421H82.8689L82.9402 24.6984L83.2324 24.64ZM86.4964 24.64L86.7847 24.5651L86.7268 24.3421H86.4964V24.64ZM93.6644 52.224L93.376 52.2989L93.6643 53.4084L93.9527 52.299L93.6644 52.224ZM100.768 24.896L101.057 24.971L101.066 24.9341V24.896H100.768ZM100.768 24.64V24.3421H100.47V24.64H100.768ZM103.968 24.64H104.266V24.3421H103.968V24.64ZM103.968 64V64.2979H104.266V64H103.968ZM100.768 64H100.47V64.2979H100.768V64ZM100.768 27.456H101.066L100.48 27.3811L100.768 27.456ZM92.9604 57.536V57.8339H93.1908L93.2487 57.6109L92.9604 57.536ZM91.8084 57.536L91.52 57.6109L91.5779 57.8339H91.8084V57.536ZM84.0004 27.456L84.2887 27.3811L83.7024 27.456H84.0004ZM84.0004 63.68V63.9779H84.2983V63.68H84.0004ZM83.2964 63.68H82.9984V63.9779H83.2964V63.68ZM83.2964 24.96H83.5943V24.9305L83.5885 24.9016L83.2964 24.96ZM83.2324 24.64V24.9379H86.4964V24.64V24.3421H83.2324V24.64ZM86.4964 24.64L86.208 24.7149L93.376 52.2989L93.6644 52.224L93.9527 52.1491L86.7847 24.5651L86.4964 24.64ZM93.6644 52.224L93.9527 52.299L101.057 24.971L100.768 24.896L100.48 24.821L93.376 52.149L93.6644 52.224ZM100.768 24.896H101.066V24.64H100.768H100.47V24.896H100.768ZM100.768 24.64V24.9379H103.968V24.64V24.3421H100.768V24.64ZM103.968 24.64H103.67V64H103.968H104.266V24.64H103.968ZM103.968 64V63.7021H100.768V64V64.2979H103.968V64ZM100.768 64H101.066V27.456H100.768H100.47V64H100.768ZM100.768 27.456L100.48 27.3811L92.672 57.4611L92.9604 57.536L93.2487 57.6109L101.057 27.5309L100.768 27.456ZM92.9604 57.536V57.2381H91.8084V57.536V57.8339H92.9604V57.536ZM91.8084 57.536L92.0967 57.4611L84.2887 27.3811L84.0004 27.456L83.712 27.5309L91.52 57.6109L91.8084 57.536ZM84.0004 27.456H83.7024V63.68H84.0004H84.2983V27.456H84.0004ZM84.0004 63.68V63.3821H83.2964V63.68V63.9779H84.0004V63.68ZM83.2964 63.68H83.5943V24.96H83.2964H82.9984V63.68H83.2964ZM83.2964 24.96L83.5885 24.9016L83.5245 24.5816L83.2324 24.64L82.9402 24.6984L83.0042 25.0184L83.2964 24.96ZM106.911 64L106.625 63.9146L106.511 64.2979H106.911V64ZM118.687 24.64V24.3421H118.465L118.401 24.5546L118.687 24.64ZM119.135 24.64L119.42 24.5537L119.356 24.3421H119.135V24.64ZM131.039 64V64.2979H131.44L131.324 63.9137L131.039 64ZM128.031 64L127.745 64.0847L127.808 64.2979H128.031V64ZM124.575 52.352L124.86 52.2673L124.797 52.0541H124.575V52.352ZM111.071 52.352V52.0541H110.848L110.785 52.2673L111.071 52.352ZM107.615 64V64.2979H107.837L107.9 64.0847L107.615 64ZM117.791 29.888L118.076 29.8026L117.791 28.8483L117.505 29.8026L117.791 29.888ZM111.263 51.712L110.977 51.6266L110.863 52.0099H111.263V51.712ZM124.319 51.712V52.0099H124.719L124.604 51.6266L124.319 51.712ZM106.911 64L107.196 64.0854L118.972 24.7254L118.687 24.64L118.401 24.5546L106.625 63.9146L106.911 64ZM118.687 24.64V24.9379H119.135V24.64V24.3421H118.687V24.64ZM119.135 24.64L118.85 24.7262L130.754 64.0863L131.039 64L131.324 63.9137L119.42 24.5537L119.135 24.64ZM131.039 64V63.7021H128.031V64V64.2979H131.039V64ZM128.031 64L128.316 63.9153L124.86 52.2673L124.575 52.352L124.289 52.4367L127.745 64.0847L128.031 64ZM124.575 52.352V52.0541H111.071V52.352V52.6499H124.575V52.352ZM111.071 52.352L110.785 52.2673L107.329 63.9153L107.615 64L107.9 64.0847L111.356 52.4367L111.071 52.352ZM107.615 64V63.7021H106.911V64V64.2979H107.615V64ZM117.791 29.888L117.505 29.8026L110.977 51.6266L111.263 51.712L111.548 51.7974L118.076 29.9734L117.791 29.888ZM111.263 51.712V52.0099H124.319V51.712V51.4141H111.263V51.712ZM124.319 51.712L124.604 51.6266L118.076 29.8026L117.791 29.888L117.505 29.9734L124.033 51.7974L124.319 51.712ZM137.182 64V64.2979H137.48V64H137.182ZM133.982 64H133.684V64.2979H133.982V64ZM133.982 24.64V24.3421H133.684V24.64H133.982ZM137.182 24.64H137.48V24.3421H137.182V24.64ZM137.182 47.68H136.884V48.7643L137.438 47.8322L137.182 47.68ZM150.878 24.64V24.3421H150.709L150.622 24.4878L150.878 24.64ZM151.646 24.64L151.902 24.7927L152.171 24.3421H151.646V24.64ZM141.406 41.792L141.151 41.6393L141.073 41.7698L141.133 41.9096L141.406 41.792ZM150.942 64V64.2979H151.395L151.216 63.8824L150.942 64ZM147.678 64L147.405 64.1175L147.482 64.2979H147.678V64ZM139.55 45.056L139.824 44.9385L139.598 44.4112L139.297 44.8996L139.55 45.056ZM137.182 48.896L136.929 48.7396L136.884 48.8115V48.896H137.182ZM137.182 64V63.7021H133.982V64V64.2979H137.182V64ZM133.982 64H134.28V24.64H133.982H133.684V64H133.982ZM133.982 24.64V24.9379H137.182V24.64V24.3421H133.982V24.64ZM137.182 24.64H136.884V47.68H137.182H137.48V24.64H137.182ZM137.182 47.68L137.438 47.8322L151.134 24.7922L150.878 24.64L150.622 24.4878L136.926 47.5278L137.182 47.68ZM150.878 24.64V24.9379H151.646V24.64V24.3421H150.878V24.64ZM151.646 24.64L151.391 24.4873L141.151 41.6393L141.406 41.792L141.662 41.9447L151.902 24.7927L151.646 24.64ZM141.406 41.792L141.133 41.9096L150.669 64.1176L150.942 64L151.216 63.8824L141.68 41.6744L141.406 41.792ZM150.942 64V63.7021H147.678V64V64.2979H150.942V64ZM147.678 64L147.952 63.8825L139.824 44.9385L139.55 45.056L139.277 45.1735L147.405 64.1175L147.678 64ZM139.55 45.056L139.297 44.8996L136.929 48.7396L137.182 48.896L137.436 49.0524L139.804 45.2124L139.55 45.056ZM137.182 48.896H136.884V64H137.182H137.48V48.896H137.182ZM153.848 64L153.563 63.9146L153.448 64.2979H153.848V64ZM165.624 24.64V24.3421H165.403L165.339 24.5546L165.624 24.64ZM166.072 24.64L166.358 24.5537L166.294 24.3421H166.072V24.64ZM177.976 64V64.2979H178.378L178.262 63.9137L177.976 64ZM174.968 64L174.683 64.0847L174.746 64.2979H174.968V64ZM171.512 52.352L171.798 52.2673L171.735 52.0541H171.512V52.352ZM158.008 52.352V52.0541H157.786L157.723 52.2673L158.008 52.352ZM154.552 64V64.2979H154.775L154.838 64.0847L154.552 64ZM164.728 29.888L165.014 29.8026L164.728 28.8483L164.443 29.8026L164.728 29.888ZM158.2 51.712L157.915 51.6266L157.8 52.0099H158.2V51.712ZM171.256 51.712V52.0099H171.656L171.542 51.6266L171.256 51.712ZM153.848 64L154.134 64.0854L165.91 24.7254L165.624 24.64L165.339 24.5546L153.563 63.9146L153.848 64ZM165.624 24.64V24.9379H166.072V24.64V24.3421H165.624V24.64ZM166.072 24.64L165.787 24.7262L177.691 64.0863L177.976 64L178.262 63.9137L166.358 24.5537L166.072 24.64ZM177.976 64V63.7021H174.968V64V64.2979H177.976V64ZM174.968 64L175.254 63.9153L171.798 52.2673L171.512 52.352L171.227 52.4367L174.683 64.0847L174.968 64ZM171.512 52.352V52.0541H158.008V52.352V52.6499H171.512V52.352ZM158.008 52.352L157.723 52.2673L154.267 63.9153L154.552 64L154.838 64.0847L158.294 52.4367L158.008 52.352ZM154.552 64V63.7021H153.848V64V64.2979H154.552V64ZM164.728 29.888L164.443 29.8026L157.915 51.6266L158.2 51.712L158.486 51.7974L165.014 29.9734L164.728 29.888ZM158.2 51.712V52.0099H171.256V51.712V51.4141H158.2V51.712ZM171.256 51.712L171.542 51.6266L165.014 29.8026L164.728 29.888L164.443 29.9734L170.971 51.7974L171.256 51.712ZM200.952 33.664V33.9619H201.25V33.664H200.952ZM200.312 33.664H200.014V33.9619H200.312V33.664ZM185.976 27.712L185.769 27.497L185.765 27.5013L185.976 27.712ZM184.44 34.56L184.15 34.6275L184.152 34.6361L184.44 34.56ZM193.08 41.728L193.215 41.4621L193.208 41.459L193.08 41.728ZM199.672 60.736L199.464 60.5222L199.461 60.5253L199.672 60.736ZM180.92 53.056V52.7581H180.622V53.056H180.92ZM181.56 53.056H181.858V52.7581H181.56V53.056ZM199.224 60.288L199.013 60.0773V60.0773L199.224 60.288ZM201.272 52.16L200.986 52.2437L200.986 52.2456L201.272 52.16ZM193.528 46.144L193.395 46.4105L193.398 46.4124L193.528 46.144ZM191.864 24.64V24.9379C196.695 24.9379 200.654 28.7766 200.654 33.664H200.952H201.25C201.25 28.4393 197.016 24.3421 191.864 24.3421V24.64ZM200.952 33.664V33.3661H200.312V33.664V33.9619H200.952V33.664ZM200.312 33.664H200.61C200.61 28.823 196.632 24.9821 191.864 24.9821V25.28V25.5779C196.312 25.5779 200.014 29.1609 200.014 33.664H200.312ZM191.864 25.28V24.9821C189.541 24.9821 187.42 25.9122 185.77 27.4971L185.976 27.712L186.182 27.9269C187.731 26.4398 189.707 25.5779 191.864 25.5779V25.28ZM185.976 27.712L185.765 27.5013C184.01 29.2567 183.493 31.8038 184.15 34.6275L184.44 34.56L184.73 34.4925C184.107 31.8122 184.614 29.4953 186.187 27.9227L185.976 27.712ZM184.44 34.56L184.152 34.6361C184.624 36.4234 185.835 37.787 187.408 38.9366C188.978 40.0837 190.94 41.039 192.952 41.997L193.08 41.728L193.208 41.459C191.188 40.497 189.277 39.5643 187.76 38.4554C186.245 37.349 185.152 36.0886 184.728 34.4839L184.44 34.56ZM193.08 41.728L192.945 41.9938C195.356 43.2151 197.767 44.4144 199.581 45.9777C201.383 47.5297 202.574 49.4213 202.574 52.032H202.872H203.17C203.17 49.2027 201.865 47.1583 199.97 45.5263C198.089 43.9056 195.604 42.6729 193.215 41.4622L193.08 41.728ZM202.872 52.032H202.574C202.574 55.6865 201.568 58.4806 199.464 60.5222L199.672 60.736L199.879 60.9498C202.128 58.7674 203.17 55.8015 203.17 52.032H202.872ZM199.672 60.736L199.461 60.5253C197.404 62.5825 194.727 63.7021 191.864 63.7021V64V64.2979C194.888 64.2979 197.716 63.1135 199.883 60.9467L199.672 60.736ZM191.864 64V63.7021C186.012 63.7021 181.218 58.9075 181.218 53.056H180.92H180.622C180.622 59.2365 185.683 64.2979 191.864 64.2979V64ZM180.92 53.056V53.3539H181.56V53.056V52.7581H180.92V53.056ZM181.56 53.056H181.262C181.262 58.9165 186.003 63.6579 191.864 63.6579V63.36V63.0621C186.332 63.0621 181.858 58.5875 181.858 53.056H181.56ZM191.864 63.36V63.6579C194.761 63.6579 197.396 62.5372 199.435 60.4987L199.224 60.288L199.013 60.0773C197.084 62.0068 194.599 63.0621 191.864 63.0621V63.36ZM199.224 60.288L199.435 60.4987C201.085 58.8484 202.75 56.0518 201.557 52.0744L201.272 52.16L200.986 52.2456C202.097 55.9482 200.563 58.5275 199.013 60.0773L199.224 60.288ZM201.272 52.16L201.558 52.0763C201.145 50.6663 200.037 49.5448 198.625 48.5707C197.21 47.5952 195.444 46.7373 193.657 45.8756L193.528 46.144L193.398 46.4124C195.195 47.2787 196.917 48.1168 198.287 49.0613C199.658 50.0072 200.631 51.0297 200.986 52.2437L201.272 52.16ZM193.528 46.144L193.661 45.8775C191.157 44.6253 188.522 43.3138 186.508 41.5518C184.506 39.8 183.138 37.62 183.138 34.624H182.84H182.542C182.542 37.836 184.022 40.168 186.116 42.0002C188.198 43.8222 190.907 45.1667 193.395 46.4105L193.528 46.144ZM182.84 34.624H183.138C183.138 31.9952 183.952 29.5707 185.443 27.8085C186.931 26.0514 189.103 24.9379 191.864 24.9379V24.64V24.3421C188.928 24.3421 186.589 25.5326 184.988 27.4235C183.392 29.3093 182.542 31.8768 182.542 34.624H182.84ZM221.978 64V64.2979H222.276V64H221.978ZM206.17 64H205.872V64.2979H206.17V64ZM206.17 24.64V24.3421H205.872V24.64H206.17ZM221.978 24.64H222.276V24.3421H221.978V24.64ZM221.978 25.28V25.5779H222.276V25.28H221.978ZM209.37 25.28V24.9821H209.072V25.28H209.37ZM209.37 43.968H209.072V44.2659H209.37V43.968ZM218.778 43.968H219.076V43.6701H218.778V43.968ZM218.778 44.608V44.9059H219.076V44.608H218.778ZM209.37 44.608V44.3101H209.072V44.608H209.37ZM209.37 63.36H209.072V63.6579H209.37V63.36ZM221.978 63.36H222.276V63.0621H221.978V63.36ZM221.978 64V63.7021H206.17V64V64.2979H221.978V64ZM206.17 64H206.468V24.64H206.17H205.872V64H206.17ZM206.17 24.64V24.9379H221.978V24.64V24.3421H206.17V24.64ZM221.978 24.64H221.68V25.28H221.978H222.276V24.64H221.978ZM221.978 25.28V24.9821H209.37V25.28V25.5779H221.978V25.28ZM209.37 25.28H209.072V43.968H209.37H209.668V25.28H209.37ZM209.37 43.968V44.2659H218.778V43.968V43.6701H209.37V43.968ZM218.778 43.968H218.48V44.608H218.778H219.076V43.968H218.778ZM218.778 44.608V44.3101H209.37V44.608V44.9059H218.778V44.608ZM209.37 44.608H209.072V63.36H209.37H209.668V44.608H209.37ZM209.37 63.36V63.6579H221.978V63.36V63.0621H209.37V63.36ZM221.978 63.36H221.68V64H221.978H222.276V63.36H221.978Z" fill="#231F20" mask="url(#path-20-outside-2_2868_10939)"/>
</svg>
